SplineFontDB: 3.2
FontName: WatterSans_Regular
FullName: WatterSans Regular
FamilyName: WatterSans
Weight: Regular
Copyright: Copyright (c) 2025, Caleb Barton
UComments: "2024-12-18: Created with FontForge (http://fontforge.org)"
Version: 001.000
ItalicAngle: 0
UnderlinePosition: -100
UnderlineWidth: 50
Ascent: 800
Descent: 200
InvalidEm: 0
LayerCount: 2
Layer: 0 0 "Back" 1
Layer: 1 0 "Fore" 0
XUID: [1021 980 -484014916 23719]
StyleMap: 0x0000
FSType: 0
OS2Version: 0
OS2_WeightWidthSlopeOnly: 0
OS2_UseTypoMetrics: 1
CreationTime: 1734586993
ModificationTime: 1753406327
PfmFamily: 33
TTFWeight: 400
TTFWidth: 5
LineGap: 90
VLineGap: 90
OS2TypoAscent: 0
OS2TypoAOffset: 1
OS2TypoDescent: 0
OS2TypoDOffset: 1
OS2TypoLinegap: 90
OS2WinAscent: 0
OS2WinAOffset: 1
OS2WinDescent: 0
OS2WinDOffset: 1
HheadAscent: 0
HheadAOffset: 1
HheadDescent: 0
HheadDOffset: 1
OS2Vendor: 'CbBn'
Lookup: 4 0 1 "'liga' Standard Ligatures in Latin lookup 0" { "'liga' Standard Ligatures in Latin lookup 0-1"  } ['liga' ('DFLT' <'dflt' > 'latn' <'dflt' > ) ]
Lookup: 258 0 0 "'kern' Horizontal Kerning in Latin lookup 0" { "'kern' Horizontal Kerning in Latin lookup 0-1" [150,15,2] } ['kern' ('DFLT' <'dflt' > 'latn' <'dflt' > ) ]
MarkAttachClasses: 1
DEI: 91125
LangName: 1033
Encoding: Custom
UnicodeInterp: none
NameList: AGL For New Fonts
DisplaySize: -48
AntiAlias: 1
FitToEm: 0
WinInfo: 0 17 7
BeginPrivate: 0
EndPrivate
TeXData: 1 0 0 381681 190840 127227 548951 1048576 127227 783286 444596 497025 792723 393216 433062 380633 303038 157286 324010 404750 52429 2506097 1059062 262144
BeginChars: 260 120

StartChar: A
Encoding: 65 65 0
Width: 379
Flags: W
HStem: 124 82<79.5 218.46> 152 58<132.105 268> 614 20G<124 142> 614 20G<124 142>
VStem: -0 50<-1.63588 117.835>
LayerCount: 2
Fore
SplineSet
91 599 m 0x88
 99 621 115 634 133 634 c 0
 151 634 173 620 192 589 c 0
 230 528 291 327 322 230 c 0
 346 155 393 71 393 30 c 0
 393 17 389 8 378 5 c 0
 372 3 367 2 363 2 c 0
 317 2 313 106 278 151 c 1
 273 152 268 152 263 152 c 0x68
 206 152 115 124 81 124 c 0
 78 124 75 124 73 125 c 1
 58 95 65 41 50 10 c 1
 44 2 35 -2 26 -2 c 0
 13 -2 -0 8 -0 32 c 0
 -0 37 1 43 2 50 c 1
 14 162 59 509 91 599 c 0x88
140 533 m 1
 127 501 105 310 88 216 c 1
 96 208 114 206 136 206 c 0x88
 166 206 205 210 236 210 c 0
 248 210 259 210 268 208 c 1
 234 296 155 518 140 533 c 1
EndSplineSet
Validated: 1
EndChar

StartChar: B
Encoding: 66 66 1
Width: 415
Flags: W
HStem: 7.26595 61.734<126.038 317.231> 259 54<109.164 203.01> 553 67<64.4782 204.495>
VStem: -0 62<375.642 547.115> 293 70<384.312 484.914> 335 60<87.3488 192.629>
LayerCount: 2
Fore
SplineSet
109 247 m 4xf4
 108 246 108 243 108 239 c 4
 108 205 126 80 126 80 c 5
 126 80 178 69 231 69 c 4
 278 69 326 78 333 114 c 4
 334 121 335 128 335 135 c 4
 335 192 285 224 240 250 c 4
 229 256 205 259 181 259 c 4
 147 259 112 254 109 247 c 4xf4
99 313 m 4
 196 315 293 361 293 446 c 4
 293 447 l 4xf8
 293 491 204 543 142 551 c 4
 137 552 127 553 116 553 c 4
 97 553 74 550 64 537 c 4
 63 535 62 532 62 526 c 4
 62 479 94 313 99 313 c 4
98 13 m 5
 45 25 54 183 34 282 c 4
 19 355 -0 478 -0 546 c 4
 -0 570 2 587 8 593 c 4
 38 622 68 618 107 620 c 4
 110 620 112 620 115 620 c 4
 202 620 358 559 363 429 c 4
 363 428 363 428 363 427 c 4xf8
 363 371 278 305 278 305 c 5
 342 284 395 207 395 134 c 4xf4
 395 127 394.083152333 120.040490161 393 113 c 4
 381.236547464 30.6558322498 327.713807392 7.2659527858 247.25028346 7.2659527858 c 4
 238.792140226 7.2659527858 230.036308393 7.52440482144 221 8 c 6
 98 13 l 5
EndSplineSet
Validated: 5
EndChar

StartChar: C
Encoding: 67 67 2
Width: 451
Flags: W
HStem: 543 70<194.619 351.964>
VStem: -0 67<231.006 396.518>
LayerCount: 2
Fore
SplineSet
249 608 m 0
 260 611 274 613 287 613 c 0
 336 613 391 593 391 564 c 0
 391 560 390 555 387 550 c 0
 378 534 367 528 353 528 c 0
 331 528 302 543 268 543 c 0
 258 543 248 542 237 539 c 0
 193 526 171 510 130 466 c 0
 99 431 67 362 67 306 c 0
 67 300 67 295 68 290 c 0
 76 217 144 152 204 112 c 0
 265 72 413 93 427 49 c 0
 429 44 430 39 430 34 c 0
 430 12 407 4 374 4 c 0
 314 4 220 32 178 52 c 0
 108 85 26 168 9 246 c 0
 3 277 -0 304 -0 328 c 0
 -0 432 52 481 90 526 c 0
 138 582 202 595 249 608 c 0
EndSplineSet
Validated: 1
EndChar

StartChar: D
Encoding: 68 68 3
Width: 432
Flags: W
HStem: 567 58<65.5715 186.695>
VStem: 72 68<87 269.946> 342 68<180.743 409.927>
LayerCount: 2
Fore
SplineSet
0 584 m 0
 -0 585 -0 587 -0 588 c 0
 -0 612 33 625 81 625 c 0
 147 625 240 600 308 540 c 0
 379 477 410 371 410 279 c 0
 410 228 400 181 383 148 c 0
 335 54 221 29 151 18 c 0
 131 15 109 11 91 11 c 0
 67 11 49 18 49 43 c 0
 49 45 49 46 49 47 c 0
 50 75 65 81 70 81 c 0
 71 81 l 1
 71 84 72 88 72 93 c 0
 72 173 22 466 0 584 c 0
335 362 m 0
 311 513 168 567 94 567 c 0
 83 567 72 566 65 563 c 1
 117 395 130 126 140 87 c 1
 209 105 342 105 342 285 c 0
 342 308 340 333 335 362 c 0
EndSplineSet
Validated: 1
EndChar

StartChar: E
Encoding: 69 69 4
Width: 454
Flags: W
HStem: 9 71<155.028 388.652> 604 20G<227.5 282> 604 20G<227.5 282>
VStem: 0 74<433.234 566>
LayerCount: 2
Fore
SplineSet
8 589 m 0xd0
 20 600 33 601 50 601 c 0
 53 601 55 601 58 601 c 0
 74 601 92 601 113 608 c 0
 144 617 201 624 254 624 c 0
 310 624 360 616 361 594 c 0
 361 593 l 0
 361 538 135 571 75 537 c 1
 74 534 74 530 74 526 c 0
 74 484 105 393 107 331 c 1
 117 322 138 319 163 319 c 0
 206 319 261 327 303 327 c 0
 336 327 360 322 363 304 c 0
 363 303 363 302 363 300 c 0
 363 242 119 270 119 242 c 0
 119 241 l 0
 127 195 151 128 155 90 c 1
 165 82 183 80 205 80 c 0
 257 80 335 94 390 94 c 0
 427 94 455 88 459 66 c 1
 458 34 300 9 198 9 c 0
 153 9 119 14 114 25 c 1
 91 28 73 170 53 290 c 0
 37 384 0 502 0 559 c 0
 0 573 3 584 8 589 c 0xd0
EndSplineSet
Validated: 1
EndChar

StartChar: F
Encoding: 70 70 5
Width: 417
Flags: W
HStem: 19 294<124.633 210.5> 556 66<79.854 403.339>
VStem: -0 76<432.821 574> 370 2<295.141 305.813>
LayerCount: 2
Fore
SplineSet
6 593 m 1
 23 612 121 622 216 622 c 0
 315 622 412 612 412 590 c 0
 412 589 l 0
 407 559 354 554 292 554 c 0
 251 554 206 556 167 556 c 0
 129 556 97 554 79 545 c 1
 77 543 76 539 76 532 c 0
 76 484 114 326 118 323 c 0
 139 316 161 313 182 313 c 0
 239 313 292 332 328 332 c 0
 349 332 364 326 370 306 c 0
 371 302 372 298 372 295 c 0
 372 230 133 264 133 238 c 0
 133 237 l 0
 142 194 137 198 141 162 c 1
 141 161 141 161 141 160 c 0
 141 139 168 86 168 51 c 0
 168 32 160 19 135 19 c 0
 78 19 81 230 55 313 c 0
 26 404 -0 516 -0 567 c 0
 -0 581 2 590 6 593 c 1
EndSplineSet
Validated: 1
EndChar

StartChar: G
Encoding: 71 71 6
Width: 586
Flags: W
HStem: 7.82289 64.2916<227.484 409.323> 233.676 82.3239<274.423 386.552> 571 21G<403 408.776> 580.802 70.2512<207.825 374.556>
VStem: -0.26347 75.0486<232.829 469.416> 441.945 74.0707<100.857 201.935>
LayerCount: 2
Fore
SplineSet
403 571 m 1xec
 403 572 l 1
 392.933246408 566.528938265 384.111685503 564.506102432 375.67589092 564.506102432 c 0
 351.732651873 564.506102432 330.897105913 580.801856045 293.518491331 580.801856045 c 0
 283.888939451 580.801856045 273.161439438 579.72032198 261 577 c 0
 214 566 126 534 92 462 c 0
 80.3549765299 437.312550243 74.7851274684 398.088076009 74.7851274684 356.858645902 c 0
 74.7851274684 309.575094019 82.1108244089 259.654540855 96 226 c 0
 123 163 170 109 250 86 c 0
 284.541755789 76.380776869 314.112921092 72.1144973373 338.713495911 72.1144973373 c 0
 370.37657551 72.1144973373 393.805410206 79.1819857159 409 91 c 0
 432.530774531 108.837845209 441.94543556 129.124403985 441.94543556 149.071605675 c 0
 441.94543556 181.682236415 416.782626169 213.385858644 387 232 c 1
 377.427243052 233.230783036 369.032684791 233.676100282 361.555459414 233.676100282 c 0
 341.977322417 233.676100282 328.688288979 230.623068693 317.005513656 230.623068693 c 0
 300.523216003 230.623068693 287.238037272 236.699866048 264 266 c 0
 254.877020662 277.973910381 250.919714734 286.949562769 250.919714734 293.68218684 c 0
 250.919714734 322.372854156 322.783848312 310.330434487 373 316 c 0
 410.328786987 320.214540466 480.644797894 334.216499019 531.786005046 334.216499019 c 0
 565.586075105 334.216499019 591.010386047 328.100293946 593 309 c 0
 593.100401606 307.955823293 593.149594361 306.927775358 593.149594361 305.915629486 c 0
 593.149594361 256.522910921 476 245 476 245 c 1
 476 245 516.016151286 181.176771366 516.016151286 123.82895825 c 0
 516.016151286 100.599464329 509.45045045 78.4324324324 491 62 c 0
 447.213223838 22.2999896129 383.316292256 7.82288602305 322.19378616 7.82288602305 c 0
 278.622858324 7.82288602305 236.461752791 15.1794157362 204 26 c 0
 113.174056859 56.5432375166 -0.263470444515 189.807671654 -0.263470444515 359.326560934 c 0
 -0.263470444515 400.712549997 6.49778325809 444.259425099 22 489 c 0
 66 614 244 649 312 651 c 0
 313.209009923 651.035559115 314.41960041 651.053099808 315.631052056 651.053099808 c 0xdc
 366.815675194 651.053099808 419.53756919 619.740898439 419.53756919 593.147972359 c 0
 419.53756919 584.969615373 414.55112597 577.237608024 403 571 c 1xec
EndSplineSet
Validated: 1
EndChar

StartChar: H
Encoding: 72 72 7
Width: 455
Flags: W
HStem: 275 71<123.13 295.769> 281 58<102.375 198.916 204.185 318.812> 619 20G<315 343>
VStem: 0 91<391.713 609.619> 27 104<135.137 203.322> 298 59<365.101 638.223>
LayerCount: 2
Fore
SplineSet
40 682 m 0x6c
 98 665 57 437 91 352 c 0
 95 342 107 339 122 339 c 0x74
 146 339 177 346 200 346 c 2
 203 346 l 1xb4
 228 345 271 339 297 339 c 0x74
 310 339 318 340 319 345 c 1
 305 388 298 467 298 519 c 0
 298 528 299 537 299 544 c 2
 299 553 l 2
 299 569 298 585 298 598 c 0
 298 622 302 639 328 639 c 2
 332 639 l 1
 354 637 358 606 358 570 c 0
 358 555 357 539 357 523 c 0
 357 491 364 448 393 283 c 1
 403 253 449 120 449 54 c 0
 449 30 443 15 429 15 c 2
 426 15 l 1
 391 19 340 217 321 275 c 0
 320 279 311 280 298 280 c 0
 272 280 231 275 206 275 c 2
 203 275 l 2xb4
 181 275 149 281 127 281 c 0
 113 281 103 278 102 270 c 1
 102 264 l 2
 102 223 131 104 131 45 c 0
 131 25 128 12 118 12 c 2
 117 12 l 1
 38 19 39 238 27 350 c 0x6c
 19 416 0 531 0 607 c 0x74
 0 653 7 685 27 685 c 0
 31 685 35 684 40 682 c 0x6c
EndSplineSet
Validated: 1
EndChar

StartChar: I
Encoding: 73 73 8
Width: 329
Flags: W
HStem: -10.25 76.25<92.8463 166 232 306.818> 545.111 72.2173<10.0252 77.8125 157 219.915>
LayerCount: 2
Fore
SplineSet
168 620 m 0
 169.762198373 620.056845109 171.514702647 620.087839286 173.251818513 620.087839286 c 0
 199.258922218 620.087839286 221.816812309 613.140691737 221.816812309 581.986946917 c 0
 221.816812309 578.615430369 221.552614902 574.9604068 221 571 c 0
 218.511857892 552.33893419 205.576654469 547.22035527 189.174199192 547.22035527 c 0
 179.20765372 547.22035527 167.960969717 549.110177635 157 551 c 1
 161 538 l 1
 174 478 178 398 188 335 c 0
 199.131859086 262.642915942 232.637853272 145.537561683 232.637853272 80.2767321326 c 0
 232.637853272 75.1872321864 232.434070457 70.4130496466 232 66 c 1
 245.16582599 66.759566884 257.177768278 67.3909244678 267.905982144 67.3909244678 c 0
 299.550128468 67.3909244678 320.025511691 61.8979532369 326 38 c 0
 326.403140214 36.3426457858 326.597610165 34.7535106963 326.597610165 33.2296288432 c 0
 326.597610165 0.733246301997 238.163472357 -2.08958671428 199 -4 c 0
 175.5 -4.5 144.5 -10.25 119.75 -10.25 c 0
 95.9404078746 -10.25 77.9148855092 -4.92865582079 77.9148855092 15.5071946219 c 0
 77.9148855092 16.3143497626 77.9430055834 17.1450837504 78 18 c 0
 82 62 161 66 166 66 c 1
 156 113 156 193 136 292 c 0
 110 417 95 537 78 550 c 1
 66 548 l 2
 55 546.333333333 44 545.111111111 34.2592592593 545.111111111 c 0
 15.2107235227 545.111111111 0.977831834511 549.78511857 0.977831834511 564.949668794 c 0
 0.977831834511 565.29433715 0.985184366144 565.644424787 1 566 c 0
 3.239469478 612.282369212 38.3565155148 617.32845596 76.4006313116 617.32845596 c 0
 87.0097979534 617.32845596 97.8465899446 616.936043974 108.26149779 616.936043974 c 0
 110.529915955 616.936043974 112.778320365 616.954659599 115 617 c 0
 129 617 149 620 168 620 c 0
EndSplineSet
Validated: 1
EndChar

StartChar: K
Encoding: 75 75 9
Width: 410
Flags: W
HStem: 574.224 43.5211G<25.4708 41.5872 309.922 324.37>
VStem: 0.0964867 69.0833<376.421 611.784> 287 63.6372<543.223 591.991>
LayerCount: 2
Fore
SplineSet
129 398 m 1
 189 449 264 532 287 578 c 0
 292.605152306 589.210304611 304.080745953 594.22403225 315.76344171 594.22403225 c 0
 332.975575811 594.22403225 350.637249384 583.341147088 350.637249384 565.358098474 c 0
 350.637249384 558.527376033 348.089020146 550.672240814 342 542 c 0
 309 495 168 329 90 297 c 1
 83 293 l 1
 84 279 l 1
 178 252 371 116 399 81 c 0
 406.800323875 70.7481457641 410.130398991 60.6452998202 410.130398991 51.6323821653 c 0
 410.130398991 32.2881802646 394.790416771 17.9647301467 375.383133843 17.9647301467 c 0
 363.259948434 17.9647301467 349.549641059 23.5539560078 337 37 c 0
 287 91 146 196 93 209 c 1
 99 174 l 2
 106 133 115 98 125 75 c 0
 129.033044319 66.0571625969 130.790770983 56.8683449068 130.790770983 48.2261081344 c 0
 130.790770983 25.032455945 118.1306662 5.77557722146 102.815423332 5.77557722146 c 0
 91.2929507788 5.77557722146 78.2675760941 16.6756521542 68 45 c 0
 42.1471270949 118.865351157 0.0964867007275 429.729616103 0.0964867007275 542.304017006 c 0
 0.0964867007275 551.653521305 0.386535115736 559.635301826 1 566 c 0
 4.4489229288 601.35146002 18.3060315553 617.745153234 32.6355407072 617.745153234 c 0
 50.5389370525 617.745153234 69.1797596527 592.154284591 69.1797596527 545.97338572 c 0
 69.1797596527 543.380217593 69.1209834317 540.722127214 69 538 c 0
 68.7320508076 532.373066959 68.6076951546 525.884572681 68.6076951546 518.611468713 c 0
 68.6076951546 498.740979142 69.5358983849 473.01408311 71 443 c 1
 77 362 l 1
 129 398 l 1
EndSplineSet
Validated: 1
EndChar

StartChar: L
Encoding: 76 76 10
Width: 441
Flags: W
HStem: 11 89<115.838 211.705 214.656 408.748> 26 76<116.412 362.403> 585 20G<26 53.5>
LayerCount: 2
Fore
SplineSet
28 605 m 0xa0
 29 605 29 605 30 605 c 0
 77 605 60 471 87 324 c 0
 110 203 108 100 128 100 c 0
 129 100 l 0xa0
 140 101 156 102 175 102 c 0
 273 102 454 86 454 50 c 0
 454 49 454 49 454 48 c 0
 449 20 412 9 364 9 c 0
 330 9 292 14 255 22 c 0
 241 25 228 26 214 26 c 0x60
 165 26 118 11 91 11 c 0
 79 11 71 13 67 20 c 0
 43 55 39 219 30 316 c 0
 24 384 0 488 0 550 c 0
 0 577 5 597 17 602 c 0
 21 604 24 605 28 605 c 0xa0
EndSplineSet
Validated: 1
EndChar

StartChar: M
Encoding: 77 77 11
Width: 550
Flags: W
HStem: 610 20G<19 55.5> 610 20G<19 55.5>
VStem: -0 66<286.655 577.415>
LayerCount: 2
Fore
SplineSet
14 345 m 1xa0
 8 396 -0 469 -0 529 c 0
 -0 585 7 629 31 630 c 0
 80 630 98 484 125 430 c 0
 160 361 225 247 249 247 c 1
 249 250 249 254 249 257 c 0
 249 409 331 639 373 639 c 0
 376 639 379 638 381 636 c 0
 411 611 434 428 462 288 c 0
 493 133 555 33 555 -10 c 0
 555 -25 547 -32 527 -32 c 0
 524 -32 522 -32 519 -32 c 0
 449 -26 424 171 402 253 c 0
 381 335 371 434 362 470 c 1
 321 431 339 189 290 150 c 0
 284 145 277 143 270 143 c 0
 208 143 110 312 67 412 c 5
 66 410 66 407 66 403 c 0
 66 349 104 130 112 117 c 0
 120 102 130 75 130 52 c 0
 130 31 121 14 95 14 c 0
 93 14 91 14 88 14 c 0
 18 21 31 253 14 345 c 1xa0
EndSplineSet
Validated: 5
EndChar

StartChar: N
Encoding: 78 78 12
Width: 499
Flags: W
HStem: 597.491 20G<15.2157 25.6757 336.077 343.382> 608.019 20G<336.077 343.382>
VStem: 0.08 65.92<331.423 465> 26 92.2045<96.459 251.443>
LayerCount: 2
Fore
SplineSet
26 301 m 1x50
 18.8 358 0.08 470.44 0.08 544.792 c 0
 0.08 587.393748477 6.22575696524 617.491245283 24.2056180522 617.491245283 c 0xa0
 27.145690682 617.491245283 30.402194178 616.686471479 34 615 c 0
 98 585 354 156 409 121 c 1
 389 210 355 306 344 390 c 0
 337.212980418 442.445151315 323.954210492 521.538686401 323.954210492 573.961223098 c 0
 323.954210492 605.958351043 328.893780733 628.019167347 343.259522062 628.019167347 c 0
 343.503619227 628.019167347 343.75043787 628.012798058 344 628 c 0
 419 624 383 458 440 268 c 0
 467.804128225 176.449821698 496.987916557 74.3222492452 496.987916557 19.3135883679 c 0
 496.987916557 -5.78499572569 490.912473352 -21.0744259178 475.858521663 -21.0744259178 c 0
 475.253576158 -21.0744259178 474.634131734 -21.0497358222 474 -21 c 0
 420 -17 289 166 219 247 c 0
 150 328 90 448 66 465 c 1
 68.1529839046 360.939111278 118.204477975 178.077447767 118.204477975 86.8110545722 c 0
 118.204477975 52.9956790894 111.333418642 31.7544844311 92.6091770559 31.7544844311 c 0
 91.4517976966 31.7544844311 90.249130878 31.8356406739 89 32 c 0
 28 39 47 211 26 301 c 1x50
EndSplineSet
Validated: 1
EndChar

StartChar: O
Encoding: 79 79 13
Width: 490
Flags: W
HStem: 11 79<219.542 331.245> 544 75<137.726 280.906>
VStem: 1 68<245.996 461.509> 404 69<163.386 349.776>
LayerCount: 2
Fore
SplineSet
344 560 m 0
 422 457 464 362 472 271 c 0
 473 265 473 259 473 253 c 0
 473 145 391 35 316 13 c 0
 311 12 306 11 299 11 c 0
 255 11 174 45 110 105 c 0
 41 171 1 270 1 366 c 0
 1 429 18 492 56 542 c 1
 90 584 157 619 222 619 c 0
 268 619 312 602 344 560 c 0
69 332 m 0
 69 216 196 98 255 91 c 0
 259 91 262 90 266 90 c 0
 328 90 404 150 404 244 c 0
 404 256 402 270 399 284 c 0
 385 346 372 404 313 489 c 0
 285 530 248 544 214 544 c 0
 178 544 145 529 126 515 c 0
 89 486 69 407 69 332 c 0
EndSplineSet
Validated: 1
EndChar

StartChar: R
Encoding: 82 82 14
Width: 460
Flags: W
LayerCount: 2
Fore
SplineSet
24.91015625 621.4296875 m 0
 73.1796875 654.860351562 238.349609375 664.23046875 314.549804688 583.919921875 c 0
 390.740234375 503.620117188 364.040039062 400.389648438 341.16015625 349.639648438 c 0
 312.219726562 285.389648438 268.08984375 281.110351562 238.98046875 246.400390625 c 1
 259.969726562 185.009765625 524.959960938 42.650390625 473.349609375 -25.66015625 c 4
 437.33984375 -73.3203125 122.66015625 240.830078125 117.790039062 234.610351562 c 0
 111.700195312 225.83984375 166.9296875 11.650390625 111.009765625 8.51953125 c 0
 64.41015625 5.91015625 39.259765625 260.26953125 24.900390625 383.360351562 c 0
 10.9296875 503.209960938 -23.3603515625 588 24.91015625 621.4296875 c 0
100.650390625 309.01953125 m 1
 229.150390625 289.349609375 311.3203125 392.860351562 305.5703125 463.080078125 c 0
 299.08984375 542.299804688 194.73046875 599.129882812 70.900390625 566.190429688 c 1
 51.599609375 576.8203125 82.3798828125 355.059570312 100.650390625 309.01953125 c 1
EndSplineSet
Validated: 33
EndChar

StartChar: S
Encoding: 83 83 15
Width: 448
Flags: W
LayerCount: 2
Fore
SplineSet
4.3203125 484.129882812 m 4
 29.7057466509 615.8432697 192.089766198 661.466974684 335.669921875 608.259765625 c 4
 390.040039062 588.099609375 378.780273438 545.099609375 353.25 535 c 4
 327.73046875 524.889648438 256.690429688 584.26953125 177.25 568.73046875 c 4
 125.900390625 558.690429688 71.75 504.639648438 67.150390625 454.0703125 c 4
 56.76953125 339.759765625 239.469726562 355.8203125 350.370117188 315.16015625 c 4
 424.110351562 288.129882812 452.030273438 228.950195312 429.290039062 139.129882812 c 4
 406.200195312 47.9599609375 317.280273438 20.23046875 252.009765625 10.2900390625 c 4
 168.58984375 -2.400390625 31.7099609375 81.7197265625 69.76953125 117.049804688 c 5
 112.099609375 163.549804688 143.080078125 106.459960938 177.360351562 95.4296875 c 4
 207.150390625 85.849609375 298.549804688 79.1201171875 327.8203125 107.540039062 c 4
 356.440429688 135.330078125 399.040039062 205.16015625 343.099609375 245.950195312 c 4
 270.509765625 298.879882812 -40.080078125 253.73046875 4.3203125 484.129882812 c 4
EndSplineSet
Validated: 33
EndChar

StartChar: T
Encoding: 84 84 16
Width: 479
VWidth: 3200
Flags: W
LayerCount: 2
Fore
SplineSet
153.620117188 612.830078125 m 0
 237.531358904 624.441793804 465.288998381 655.959107803 461.959960938 585.830078125 c 0
 457.280273438 532.620117188 285.889648438 582.209960938 221.990234375 546.219726562 c 1
 228.860351562 467.889648438 237.5703125 369.459960938 245.75 281.080078125 c 0
 253.940429688 192.700195312 311.169921875 28.6904296875 271.099609375 15.9404296875 c 0
 219.5703125 -0.4599609375 192.400390625 202.73046875 183.969726562 287.4296875 c 0
 175.540039062 372.129882812 176.049804688 493.559570312 158.620117188 539.870117188 c 1
 119.01953125 544.889648438 9.5595703125 503.830078125 0.2001953125 557.330078125 c 0
 -4.990234375 605.830078125 92.349609375 604.349609375 153.620117188 612.830078125 c 0
EndSplineSet
Validated: 33
EndChar

StartChar: Y
Encoding: 89 89 17
Width: 398
Flags: W
VStem: 228.2 63.2695<59.3283 278.572>
LayerCount: 2
Fore
SplineSet
3.6201171875 636.48046875 m 0
 60.26953125 700.419921875 193.379882812 361.940429688 237.6796875 336.719726562 c 1
 265.469726562 492.120117188 l 2
 275.440429688 552.700195312 298.120117188 709.75 354.290039062 672.620117188 c 0
 395.540039062 645.349609375 329.830078125 566.150390625 312.379882812 468.450195312 c 0
 300.290039062 400.759765625 293.860351562 319.860351562 291.469726562 264.83984375 c 0
 289.0703125 209.8203125 293.41015625 183.290039062 298.009765625 138.3203125 c 0
 301.950195312 94.73046875 341.33984375 8.5 278.599609375 10.259765625 c 0
 206.889648438 11.3798828125 241.860351562 216.379882812 228.200195312 241.48046875 c 0
 203.759765625 286.389648438 149.530273438 368.759765625 99.1904296875 437.450195312 c 1
 58.2900390625 506.540039062 -14.9404296875 615.51953125 3.6201171875 636.48046875 c 0
EndSplineSet
Validated: 33
EndChar

StartChar: Z
Encoding: 90 90 18
Width: 494
Flags: W
HStem: 19.0303 68.7598<212.092 444.731> 566.61 72.6592<161.566 359.9>
LayerCount: 2
Fore
SplineSet
394.959960938 639.26953125 m 0
 433.919921875 640.58984375 451.389648438 609.209960938 442.990234375 586.759765625 c 1
 442.349609375 585.8203125 l 1
 441.58984375 580.5703125 l 1
 422.190429688 529.360351562 326.080078125 396.3203125 298.809570312 332.440429688 c 0
 262.459960938 247.25 224.049804688 154.049804688 211.919921875 87.7900390625 c 1
 280.690429688 107.08984375 474.400390625 90.9404296875 470.280273438 42.3203125 c 0
 465.580078125 -13.080078125 354.209960938 19.6796875 296.389648438 19.0302734375 c 0
 238.5703125 18.3798828125 133.610351562 -19.150390625 123.349609375 38.419921875 c 0
 113.080078125 95.990234375 195.360351562 276.580078125 234.790039062 364.459960938 c 0
 274.209960938 452.330078125 323.83984375 527.450195312 359.900390625 565.669921875 c 1
 304.049804688 566.610351562 l 1
 206.370117188 563.08984375 105.889648438 545.540039062 51.7001953125 526.26953125 c 0
 11.25 511.919921875 -27.8095703125 575.75 29.400390625 594.580078125 c 0
 86.6103515625 613.419921875 332.629882812 637.150390625 394.959960938 639.26953125 c 0
EndSplineSet
Validated: 33
EndChar

StartChar: J
Encoding: 74 74 19
Width: 356
Flags: W
LayerCount: 2
Fore
SplineSet
299.049804688 309.599609375 m 0
 349.790039062 181.530273438 427.08984375 -31.8603515625 209.900390625 -69.009765625 c 0
 44.4697265625 -97.2998046875 -28.8603515625 33.08984375 10.3603515625 60.9501953125 c 0
 39.33984375 81.5302734375 110.639648438 -9.9296875 154.879882812 -10.6103515625 c 0
 199.120117188 -11.2998046875 260.099609375 3.2900390625 275.76953125 56.8203125 c 0
 295.4296875 123.969726562 265.530273438 218.51953125 227 324.879882812 c 0
 195.110351562 412.889648438 112.830078125 609.129882812 179.700195312 613.98046875 c 1
 237.66015625 616.059570312 248.299804688 437.669921875 299.049804688 309.599609375 c 0
EndSplineSet
Validated: 33
EndChar

StartChar: P
Encoding: 80 80 20
Width: 387
Flags: W
LayerCount: 2
Fore
SplineSet
17.23046875 398.5703125 m 4
 8.7001953125 521.349609375 -16.080078125 602.370117188 15.83984375 620.009765625 c 4
 70.8203125 650.400390625 206.98046875 680.959960938 313.83984375 619.099609375 c 4
 384.870117188 577.969726562 385.299804688 467.759765625 344.889648438 380.400390625 c 4
 304.469726562 293.049804688 171.559570312 236.8203125 90.4697265625 238.309570312 c 5
 89.900390625 152.610351562 174.129882812 9.3603515625 109.370117188 9 c 4
 44.6103515625 8.6396484375 32.8203125 174.110351562 17.23046875 398.5703125 c 4
78.6103515625 574.440429688 m 4
 59.0400390625 567.190429688 76.8203125 351.030273438 89.099609375 321.490234375 c 5
 211.23046875 296.440429688 309.400390625 411.690429688 313.719726562 487.299804688 c 4
 316.76953125 540.559570312 240.25 636.009765625 78.6103515625 574.440429688 c 4
EndSplineSet
Validated: 33
EndChar

StartChar: Q
Encoding: 81 81 21
Width: 529
Flags: W
LayerCount: 2
Fore
SplineSet
89.0595703125 472.349609375 m 0
 57.099609375 428.379882812 42.1904296875 347 89.51953125 265.990234375 c 0
 193.469320866 88.0821957352 362.051426173 65.8488978018 390.780273438 91.419921875 c 1
 370.66015625 126.150390625 l 1
 341.969726562 171.009765625 307.259765625 217.309570312 282.389648438 240.059570312 c 0
 254.58984375 265.549804688 311.280273438 299.459960938 357 263.950195312 c 0
 368.4296875 255.0703125 383.200195312 237.009765625 398.959960938 214.1796875 c 1
 437.400390625 151.26953125 l 1
 443.98046875 165.25 l 1
 464.162543854 237.964890955 429.54941098 446.000797996 272.450195312 529.780273438 c 0
 211.749184 562.116258958 127.563164425 525.309698367 89.0595703125 472.349609375 c 0
306.91015625 587.809570312 m 0
 403.709960938 526.150390625 518.610351562 391.080078125 508.360351562 221.849609375 c 0
 505.450195312 173.759765625 499.3203125 132.48046875 486.58984375 98.8701171875 c 1
 475.280273438 78.2197265625 l 1
 486.58984375 55.3095703125 l 1
 496.900390625 31.080078125 503.509765625 10.919921875 504.059570312 -0.75 c 0
 506.25 -47.4404296875 410.280273438 -22.990234375 422.849609375 20.8203125 c 1
 422.809570312 21.009765625 l 1
 412.450195312 17.740234375 l 1
 372.790039062 10.76953125 273.549804688 23.580078125 187.610351562 70.2802734375 c 0
 95.8095703125 120.169921875 -67.0302734375 307.879882812 29.66015625 504.860351562 c 0
 70.4886984007 587.981185285 234.669411642 633.815727114 306.91015625 587.809570312 c 0
EndSplineSet
Validated: 33
EndChar

StartChar: U
Encoding: 85 85 22
Width: 414
Flags: W
VStem: 20.0801 66.2002<216.076 501.972>
LayerCount: 2
Fore
SplineSet
33.490234375 581.870117188 m 0
 107.16015625 582.809570312 40.4296875 470.629882812 86.2802734375 273.58984375 c 0
 110.200195312 170.809570312 181.360351562 63.1103515625 257.440429688 74.76953125 c 0
 417.321498494 99.2960526967 251.010475982 598.975329788 331.599609375 623.309570312 c 0
 390.58984375 641.120117188 389.629882812 373.509765625 394.190429688 263.450195312 c 0
 398.740234375 153.400390625 400.8203125 20.650390625 269.0703125 16.5400390625 c 0
 184.169921875 13.8896484375 144.549804688 49.1103515625 103.049804688 97.259765625 c 0
 61.5595703125 145.419921875 31.669921875 224.700195312 20.080078125 305.459960938 c 0
 8.48046875 386.23046875 -22.8203125 581.16015625 33.490234375 581.870117188 c 0
EndSplineSet
Validated: 33
EndChar

StartChar: quotesingle
Encoding: 39 39 23
Width: 98
Flags: W
HStem: 644.71 143.94
VStem: 7.62988 57.4902<648.4 786.913>
LayerCount: 2
Fore
SplineSet
37.51953125 788.650390625 m 0
 68.9697265625 791 66.25 736.330078125 65.1201171875 712.33984375 c 0
 63.83984375 685.280273438 77.8603515625 639.129882812 40.650390625 644.709960938 c 0
 6.0498046875 649.91015625 2.2001953125 692.259765625 7.6298828125 721.530273438 c 0
 12.009765625 745.129882812 0.1796875 785.870117188 37.51953125 788.650390625 c 0
EndSplineSet
Validated: 33
EndChar

StartChar: i
Encoding: 105 105 24
Width: 183
Flags: W
VStem: 0.660156 75.29<374.719 576.33>
LayerCount: 2
Fore
SplineSet
85.1396484375 39.6201171875 m 4
 59.83984375 114.400390625 9.4501953125 444.080078125 0.66015625 528.16015625 c 4
 -8.1396484375 612.23046875 74.2900390625 633.690429688 75.9501953125 544.08984375 c 4
 78.98046875 379.650390625 118.51953125 173.639648438 152.41015625 79.4697265625 c 4
 171.349609375 26.740234375 110.4296875 -35.16015625 85.1396484375 39.6201171875 c 4
EndSplineSet
Validated: 33
EndChar

StartChar: t
Encoding: 116 116 25
Width: 488
VWidth: 3200
Flags: W
LayerCount: 2
Fore
SplineSet
153.620117188 612.830078125 m 0
 237.531358904 624.441793804 465.288998381 655.959107803 461.959960938 585.830078125 c 0
 457.280273438 532.620117188 285.889648438 582.209960938 221.990234375 546.219726562 c 1
 228.860351562 467.889648438 237.5703125 369.459960938 245.75 281.080078125 c 0
 253.940429688 192.700195312 311.169921875 28.6904296875 271.099609375 15.9404296875 c 0
 219.5703125 -0.4599609375 192.400390625 202.73046875 183.969726562 287.4296875 c 0
 175.540039062 372.129882812 176.049804688 493.559570312 158.620117188 539.870117188 c 1
 119.01953125 544.889648438 9.5595703125 503.830078125 0.2001953125 557.330078125 c 0
 -4.990234375 605.830078125 92.349609375 604.349609375 153.620117188 612.830078125 c 0
EndSplineSet
Validated: 33
EndChar

StartChar: V
Encoding: 86 86 26
Width: 404
Flags: W
LayerCount: 2
Fore
SplineSet
369.114257812 596.190429688 m 1
 395.359375 563.1796875 362.689453125 265.330078125 347.7109375 148.25 c 0
 334.247070312 54.080078125 361.91015625 21.6796875 301.126953125 5.5302734375 c 0
 254.466796875 -6.8896484375 167.438476562 203.559570312 119.635742188 307.099609375 c 0
 71.8447265625 410.629882812 -37.8388671875 588.129882812 13.2685546875 626.780273438 c 0
 52.4287109375 656.400390625 117.142578125 475.040039062 171.75390625 356.400390625 c 0
 200.91015625 293.049804688 239.905273438 213.299804688 271.30078125 153.139648438 c 1
 305.948242188 198.240234375 280.811523438 689.009765625 369.114257812 596.190429688 c 1
EndSplineSet
Validated: 33
EndChar

StartChar: W
Encoding: 87 87 27
Width: 553
Flags: W
HStem: 645.87 20G<458.58 485.98>
VStem: 437.58 77.1895<197.726 581.409>
LayerCount: 2
Fore
SplineSet
458.719726562 665.870117188 m 1
 513.240234375 655.580078125 505.1796875 449.219726562 514.76953125 337.900390625 c 0
 524.370117188 226.450195312 556.360351562 7.5703125 516.440429688 -2.58984375 c 0
 464.559570312 -15.669921875 471.66015625 25.240234375 420.889648438 101.219726562 c 0
 382.219726562 160.629882812 307.389648438 278.209960938 258.009765625 367.8203125 c 1
 190.690429688 195 213.5 19.8095703125 136.450195312 13.6904296875 c 0
 80.669921875 9.240234375 47.009765625 353.490234375 0 530.620117188 c 1
 1.5302734375 570.98046875 22.8095703125 586.559570312 36.4404296875 582.940429688 c 0
 50.2099609375 579.3203125 70.099609375 555.389648438 82.33984375 508.639648438 c 0
 94.580078125 462.01953125 94.0302734375 393.290039062 109.599609375 302.98046875 c 0
 112.940429688 272.08984375 128.379882812 199.73046875 131.719726562 168.700195312 c 1
 151.190429688 294.629882812 l 1
 172.889648438 379.23046875 190 413.3203125 207.110351562 441.4296875 c 0
 214.900390625 454.790039062 234.919921875 489.709960938 281.940429688 436.280273438 c 0
 320.330078125 392.58984375 422.969726562 254.280273438 460.809570312 171.0703125 c 1
 457.889648438 237.440429688 447.1796875 289.620117188 437.580078125 357.389648438 c 0
 426.58984375 435.450195312 409.0703125 675.059570312 458.580078125 665.740234375 c 1
 458.719726562 665.870117188 l 1
EndSplineSet
Validated: 33
EndChar

StartChar: X
Encoding: 88 88 29
Width: 447
Flags: W
LayerCount: 2
Fore
SplineSet
267.030273438 548.91015625 m 0
 300.312210078 639.595262535 328.793583474 656.223450751 369.48046875 622.259765625 c 0
 396.280273438 599.879882812 310 476.330078125 295.5703125 434.9296875 c 0
 288.9296875 415.870117188 279.049804688 389.5 267.5703125 359.459960938 c 2
 240.259765625 288.620117188 l 1
 313.849609375 174.83984375 l 1
 343.099609375 133.169921875 370.370117188 98.6796875 392.219726562 78.2001953125 c 0
 441.139648438 32.3095703125 425.940429688 -54.009765625 356.400390625 20.5703125 c 0
 330.3203125 48.5400390625 280.5703125 118.120117188 226.580078125 199.120117188 c 2
 213.559570312 219.040039062 l 1
 192.73046875 164.5703125 l 2
 181.440429688 134.51953125 171.849609375 108.120117188 165.599609375 89.01953125 c 1
 171.940429688 59.6904296875 163.030273438 9.830078125 150.66015625 8.0302734375 c 0
 138.290039062 6.2197265625 53.7001953125 -14.58984375 91.400390625 78.169921875 c 0
 100.8203125 101.360351562 114.4296875 136.709960938 130.059570312 178.110351562 c 2
 170.150390625 285.580078125 l 1
 118.719726562 367.370117188 l 2
 67.73046875 450.139648438 25.4697265625 524.1796875 11.3896484375 559.259765625 c 0
 -26.16015625 652.809570312 43.5302734375 658.780273438 89.080078125 558.389648438 c 0
 99.51953125 535.360351562 118.23046875 498.959960938 141.780273438 456.01953125 c 1
 197.5 359.540039062 l 1
 230.849609375 450.150390625 l 2
 245.9296875 491.290039062 258.709960938 526.240234375 267.030273438 548.91015625 c 0
EndSplineSet
Validated: 33
EndChar

StartChar: underscore
Encoding: 95 95 30
Width: 439
Flags: W
HStem: 11.0801 71.1797<149.058 400.78>
LayerCount: 2
Fore
SplineSet
385.620117188 11.080078125 m 4
 330.540039062 -3.0703125 100.259765625 -5.8896484375 42.3603515625 -2.650390625 c 4
 -15.5400390625 0.580078125 -12.9296875 83.9599609375 47.1796875 72.98046875 c 4
 157.509765625 52.849609375 303.059570312 62.4599609375 372.83984375 82.259765625 c 4
 411.91015625 93.3203125 440.700195312 25.240234375 385.620117188 11.080078125 c 4
EndSplineSet
Validated: 33
EndChar

StartChar: s
Encoding: 115 115 31
Width: 471
Flags: W
LayerCount: 2
Fore
SplineSet
143.040039062 92.7197265625 m 0
 179.309570312 71.6904296875 255.669921875 69.2099609375 294.580078125 73.8896484375 c 0
 387.26953125 85.01953125 423.580078125 165.040039062 317.790039062 236.309570312 c 0
 245.200195312 285.23046875 -7.01953125 376.540039062 0.150390625 498.150390625 c 0
 5.8203125 594.5 175.120117188 626.009765625 298.009765625 602.620117188 c 0
 359.509765625 590.91015625 404.259765625 574.030273438 374.01953125 535.8203125 c 0
 348.299804688 503.309570312 247.540039062 546.700195312 195.040039062 545.169921875 c 0
 154.900390625 544.009765625 64.5302734375 533.009765625 69.0302734375 487.459960938 c 0
 75.0498046875 426.559570312 259.919921875 363.309570312 336.389648438 310.6796875 c 0
 395.509765625 270 484.120117188 178.41015625 455.4296875 94.9599609375 c 0
 418.91015625 -11.2998046875 264.709960938 2.8603515625 200.599609375 6.9404296875 c 0
 115.860351562 12.349609375 35.4296875 93.2900390625 71.3203125 127.389648438 c 0
 115.309570312 169.169921875 127.490234375 100.549804688 143.040039062 92.7197265625 c 0
EndSplineSet
Validated: 33
EndChar

StartChar: h
Encoding: 104 104 32
Width: 431
Flags: W
VStem: 281.285 65.585<305.258 622.94>
LayerCount: 2
Fore
SplineSet
36.5791015625 610.9296875 m 0
 89.052734375 596.209960938 45.572265625 438.83984375 86.638671875 293.450195312 c 1
 137.21875 304.139648438 229.463867188 275.919921875 290.655273438 302.639648438 c 1
 298.295898438 358.379882812 282.4921875 422.030273438 281.28515625 494.110351562 c 0
 280.532226562 538.790039062 291.7734375 636.370117188 319.328125 637.959960938 c 0
 362.23046875 640.419921875 340.459960938 535.690429688 346.870117188 458.73046875 c 0
 352.200195312 394.75 351.389648438 310.290039062 361.490234375 254.73046875 c 1
 374.1796875 218.389648438 419.030273438 -1.0498046875 368.580078125 3.0595703125 c 0
 313.536132812 7.5400390625 324.466796875 225.459960938 288.318359375 231.9296875 c 1
 232.322265625 215.049804688 149.977539062 240.740234375 104.380859375 225.26953125 c 1
 113.041992188 158.23046875 155.958007812 5.6904296875 101.434570312 3.98046875 c 0
 51.5302734375 2.4296875 49.591796875 167.75 27.53125 277.780273438 c 0
 6.908203125 380.66015625 -26.59375 628.66015625 36.5791015625 610.9296875 c 0
EndSplineSet
Validated: 33
EndChar

StartChar: hyphen
Encoding: 45 45 34
Width: 369
Flags: W
HStem: 257.18 60.54<16.4167 252.095>
LayerCount: 2
Fore
SplineSet
28.080078125 317.719726562 m 0
 69.48046875 335.48046875 237.360351562 330.759765625 280.490234375 331.759765625 c 4
 323.620117188 332.759765625 319.879882812 251.219726562 275.26953125 257.610351562 c 4
 193.379882812 269.33984375 86 266 32.08984375 257.1796875 c 0
 0.134765625 251.951171875 -13.3203125 299.950195312 28.080078125 317.719726562 c 0
EndSplineSet
Validated: 33
EndChar

StartChar: one
Encoding: 49 49 35
Width: 166
Flags: W
LayerCount: 2
Fore
SplineSet
98.060546875 11.3701171875 m 0
 56.2314453125 18.6904296875 68.0576171875 199.639648438 52.2744140625 293.580078125 c 0
 36.4912109375 387.51953125 8.818359375 556.48046875 3.3583984375 574.990234375 c 0
 -13.494140625 632.110351562 37.55078125 672.66015625 57.39453125 630.709960938 c 0
 77.23828125 588.75 111.3984375 430.1796875 122.419921875 323.26953125 c 0
 133.379882812 216.969726562 170.774414062 35.91015625 120.091796875 15.1201171875 c 0
 111.27734375 11.5 104.036132812 10.3203125 98.060546875 11.3701171875 c 0
EndSplineSet
Validated: 33
EndChar

StartChar: zero
Encoding: 48 48 36
Width: 490
Flags: W
LayerCount: 2
Fore
SplineSet
334.389648438 554.709960938 m 0
 406.23046875 483.16015625 456.6796875 354.059570312 464.759765625 262.459960938 c 0
 474.809570312 148.58984375 423.91015625 35.759765625 308.099609375 10.0302734375 c 0
 219.919921875 -9.5595703125 140.919921875 69.0595703125 78.7900390625 150.459960938 c 0
 -17.1103515625 276.129882812 -26.1103515625 459.780273438 55.330078125 546.719726562 c 1
 125.349609375 640.75 281.900390625 607 334.389648438 554.709960938 c 0
254.58984375 79.6298828125 m 0
 336.08984375 72.08984375 421.469726562 151.540039062 395.330078125 274.469726562 c 0
 382.040039062 336.91015625 369.240234375 395.690429688 311.440429688 481.639648438 c 0
 260.08984375 558.01953125 176.219726562 548.66015625 129.4296875 525.419921875 c 0
 64.990234375 493.41015625 53.2802734375 337.6796875 77.580078125 284.110351562 c 0
 125.030273438 179.459960938 197.400390625 84.91015625 254.58984375 79.6298828125 c 0
EndSplineSet
Validated: 33
EndChar

StartChar: two
Encoding: 50 50 37
Width: 491
Flags: W
LayerCount: 2
Fore
SplineSet
475.75 4.4404296875 m 1
 469.620117188 -26.169921875 308.141601562 10.0400390625 209.39453125 4.5498046875 c 0
 109.08984375 -1.009765625 77.880859375 39.8203125 97.4921875 112.58984375 c 0
 112.861328125 169.610351562 144.442382812 203.669921875 184.94921875 241.98046875 c 0
 274.608398438 326.790039062 349.515625 397.030273438 306.052734375 489.349609375 c 0
 282.669921875 539.030273438 223.108398438 565.419921875 167.625976562 553.830078125 c 0
 81.7763671875 535.900390625 81.7763671875 483.33984375 42.6279296875 476.419921875 c 0
 13.3603515625 471.240234375 -22.6220703125 495.759765625 18.626953125 543.120117188 c 0
 118.698242188 657.990234375 276.227539062 660.870117188 356.91015625 540.299804688 c 0
 498.0703125 329.419921875 167.3046875 183.299804688 169.98828125 85.150390625 c 0
 170.803594903 55.8283567871 516.564454781 125.695635763 475.75 4.4404296875 c 1
EndSplineSet
Validated: 33
EndChar

StartChar: three
Encoding: 51 51 38
Width: 481
Flags: W
LayerCount: 2
Fore
SplineSet
374.400390625 409.73046875 m 0
 352.236753434 376.219485643 333.492257251 372.993420317 342.040039062 365.620117188 c 2
 351.459960938 357.549804688 l 1
 475.988340941 245.053452195 447.235100723 144.872280476 427.549804688 94.98046875 c 0
 389.48046875 -1.4501953125 297 7.8203125 221.440429688 10.5703125 c 0
 138.059570312 13.58984375 10.259765625 91.33984375 32.3203125 125.5 c 0
 68.919921875 182.16015625 139.25 83.9501953125 233.309570312 74.83984375 c 0
 289.650390625 69.400390625 332.240234375 68.990234375 355.209960938 104.26953125 c 0
 386.66015625 152.610351562 388.5 193.23046875 360.030273438 245.599609375 c 0
 287.98046875 378.129882812 185.9296875 288.51953125 170.5 340.1796875 c 0
 162.509765625 366.959960938 194.809570312 394.41015625 222.440429688 392.790039062 c 2
 268.66015625 388.58984375 l 2
 276.030273438 388.1796875 277.370117188 391.08984375 282.379882812 396.51953125 c 0
 303.712447959 419.701301823 354.402861351 474.785794728 313.940429688 531.110351562 c 0
 286.26953125 569.66015625 243.66015625 579.41015625 181.400390625 577.299804688 c 0
 116.469726562 575.099609375 41.48046875 501.030273438 11.4501953125 530.259765625 c 0
 -34.1796875 574.669921875 62.7802734375 629.030273438 192.73046875 644.9296875 c 0
 262.79051899 653.478144181 342.016482045 609.075545678 367.169921875 573.9296875 c 0
 419.209960938 501.1796875 404.01953125 454.51953125 374.400390625 409.73046875 c 0
EndSplineSet
Validated: 33
EndChar

StartChar: four
Encoding: 52 52 39
Width: 466
Flags: W
HStem: 257.57 70.3398<89.6751 290.26> 267.66 73.25<370.161 431.425>
LayerCount: 2
Fore
SplineSet
221.900390625 517.169921875 m 5x80
 205.169921875 489.790039062 177.129882812 441.309570312 160.040039062 420.040039062 c 4
 159.330078125 419.15625 155.764648438 415.893554688 87.5498046875 332.950195312 c 5
 108.240234375 330.575195312 158.59375 325.815429688 201.740234375 327.91015625 c 4
 217.959960938 328.690429688 250.990234375 331.450195312 271.25 332.41015625 c 6
 290.259765625 333.3203125 l 5
 286.080078125 351.91015625 l 6
 285.650390625 353.821289062 246.48828125 523.301757812 239.790039062 542.240234375 c 4
 239.780273438 542.25 221.900390625 517.169921875 221.900390625 517.169921875 c 5x80
356.900390625 337.530273438 m 4
 357.295898438 337.55078125 389.713867188 339.387695312 396.379882812 340.91015625 c 4
 437.389648438 350.330078125 452.76953125 295.389648438 421.030273438 280.75 c 4
 418.708007812 279.680664062 403.82421875 273.21875 369.91015625 267.66015625 c 5x40
 370.98046875 261.799804688 l 6
 391.719726562 151.129882812 446.540039062 -1.5498046875 388.73046875 -15.1103515625 c 4
 341.620117188 -26.169921875 353.080078125 66.3603515625 307.5 249 c 5
 303.33984375 258.610351562 l 5
 274.900390625 256.830078125 l 6
 253.809570312 255.879882812 216.919921875 256.650390625 198.849609375 257.5703125 c 4
 131.459960938 260.900390625 20.66015625 249.610351562 4.3896484375 293.73046875 c 5
 1.5302734375 296.330078125 6.2099609375 291.129882812 4.3896484375 293.73046875 c 5
 -21.169921875 329.969726562 71.6796875 408.76953125 107.459960938 463.389648438 c 4
 143.23046875 518.030273438 208.08984375 615.740234375 213.5 628.349609375 c 4
 224.860728293 654.738036019 262.838007386 661.438824957 280 616.790039062 c 5
 305.25390625 561.68359375 342.478515625 417.400390625 356.900390625 337.530273438 c 4
EndSplineSet
Validated: 37
EndChar

StartChar: five
Encoding: 53 53 40
Width: 448
Flags: W
HStem: 13.0098 81.54<115.769 266.686>
LayerCount: 2
Fore
SplineSet
70.0703125 539.83984375 m 0
 78.3603515625 501.9296875 77.4404296875 404.360351562 94.23046875 403.259765625 c 0
 195.120117188 396.6796875 229.580078125 411.950195312 298.860351562 383.3203125 c 0
 368.709960938 354.450195312 415.9296875 309.73046875 414.990234375 199.120117188 c 0
 414.0703125 93.48046875 306.48046875 28.2802734375 172.26953125 13.009765625 c 0
 102.150390625 5.0400390625 84.5595703125 45.5703125 123.73046875 82.6904296875 c 0
 139.370117188 97.51953125 166.16015625 85.73046875 224.780273438 94.5498046875 c 0
 283.400390625 103.370117188 345.969726562 145.76953125 350.259765625 214.75 c 0
 357.440429688 330.030273438 160.860351562 358.01953125 107.190429688 334.790039062 c 0
 69.490234375 318.469726562 24.6103515625 300.870117188 23.0302734375 368.110351562 c 0
 21.900390625 416.25 -29.259765625 614.150390625 24.650390625 613.66015625 c 0
 120.469726562 612.799804688 299.780273438 637.509765625 358.799804688 616.530273438 c 0
 403.780273438 600.530273438 376.040039062 521.690429688 334.059570312 543.009765625 c 0
 288.8203125 565.98046875 65.3603515625 561.41015625 70.0703125 539.83984375 c 0
EndSplineSet
Validated: 33
EndChar

StartChar: six
Encoding: 54 54 41
Width: 514
Flags: W
LayerCount: 2
Fore
SplineSet
172.490234375 634.490234375 m 0
 265.014628688 645.830772978 324.026637753 630.327620148 425.8203125 578.780273438 c 0
 480.26953125 551.209960938 434.330078125 492.919921875 398.4296875 504.360351562 c 0
 373.849609375 512.200195312 357.919921875 541.530273438 263.309570312 563.259765625 c 0
 148.520968069 589.606518937 36.7896731556 497.457487911 82.8896484375 331.08984375 c 0
 99.08984375 272.51953125 121.259765625 204.559570312 121.259765625 204.559570312 c 1
 129.73046875 285.190429688 179.23046875 323.5703125 219.809570312 333.190429688 c 0
 307.110351562 353.889648438 344.450195312 336.150390625 397.669921875 309.1796875 c 0
 496.122572993 259.324804819 535.87281751 84.2346925497 408.919921875 29.33984375 c 0
 382.919921875 18.08984375 344.75 7.240234375 295.4296875 9.240234375 c 0
 191.080078125 13.4599609375 144.900390625 60.740234375 94.7197265625 122.76953125 c 0
 57.5 168.76953125 -18.2998046875 349.509765625 4.0400390625 450.349609375 c 0
 31.7802734375 575.610351562 114.290039062 627.379882812 172.490234375 634.490234375 c 0
361.200195312 247.620117188 m 0
 306.171951439 280.021638116 226.837415393 288.961401707 192.360351562 212.169921875 c 0
 165.530273438 152.400390625 213.919921875 95.51953125 261.870117188 85.6396484375 c 0
 324.870117188 72.66015625 395.5 91.650390625 409.8203125 122.879882812 c 0
 424.700195312 155.349609375 405.51953125 221.5 361.200195312 247.620117188 c 0
EndSplineSet
Validated: 33
EndChar

StartChar: seven
Encoding: 55 55 42
Width: 484
Flags: W
HStem: 529.93 72.6104<149.308 389.619>
VStem: 278.13 74.0098<25.4171 279.63>
LayerCount: 2
Fore
SplineSet
19.6396484375 597.639648438 m 0
 29.0552364744 600.408270892 72.975131475 611.647917149 362.299804688 602.540039062 c 0
 417.259765625 601.129882812 462.83984375 574.450195312 461.990234375 544.059570312 c 0
 461.040039062 510.620117188 388.559570312 384.3203125 365.98046875 311.919921875 c 0
 343.389648438 239.509765625 340.620117188 146.459960938 352.139648438 48.33984375 c 0
 357.969726562 -1.25 286.190429688 1.51953125 278.129882812 39.1904296875 c 0
 266.309570312 94.4599609375 275.080078125 225.459960938 297.200195312 308.41015625 c 0
 319.370117188 391.509765625 373.620117188 498 390.3203125 522.33984375 c 0
 392.4296875 525.41015625 390.419921875 529.599609375 386.709960938 529.9296875 c 0
 383.370590902 530.210539614 98.2115583367 549.078670024 51.6103515625 526.620117188 c 0
 22.400390625 512.530273438 -28.0302734375 583.610351562 19.6396484375 597.639648438 c 0
EndSplineSet
Validated: 33
EndChar

StartChar: eight
Encoding: 56 56 43
Width: 434
Flags: W
LayerCount: 2
Fore
SplineSet
83.740234375 138.419921875 m 0
 128.360351562 82.419921875 253.919921875 57.4599609375 300.91015625 104.530273438 c 0
 385.26953125 189.030273438 308.299804688 250.389648438 294.860351562 246.059570312 c 0
 264.830078125 236.4296875 156.530273438 247.150390625 91.919921875 269.809570312 c 1
 74.7802734375 238.48046875 50.41015625 180.259765625 83.740234375 138.419921875 c 0
88.7998046875 349.25 m 0
 140.759765625 322.219726562 246.440429688 284.330078125 299.790039062 335.360351562 c 0
 322.709960938 357.290039062 326.16015625 444.650390625 271.190429688 486.110351562 c 0
 253.01953125 499.830078125 184.419921875 532.650390625 154.73046875 527.669921875 c 0
 105.190429688 519.370117188 81.0400390625 498.610351562 74.3701171875 462.030273438 c 0
 68.2099609375 428.190429688 80.76953125 353.4296875 88.7998046875 349.25 c 0
36.650390625 301.299804688 m 0
 36.650390625 321.48046875 -13.759765625 373.41015625 14.009765625 490.120117188 c 0
 30.9296875 561.259765625 102.030273438 596.360351562 141.83984375 596.98046875 c 0
 181.650390625 597.599609375 235.26953125 579.709960938 280.990234375 555.959960938 c 0
 331.870117188 529.530273438 387.33984375 459.889648438 383.360351562 389.719726562 c 0
 379.299804688 318.120117188 344.129882812 288.599609375 344.129882812 288.599609375 c 1
 404.200195312 270.849609375 408.33984375 181.690429688 399.440429688 147 c 0
 382.549804688 81.26953125 341.870117188 8.8603515625 232.290039062 3.25 c 0
 126.9296875 -2.1396484375 22.9404296875 79.7001953125 6.66015625 140.009765625 c 0
 -18.73046875 234.169921875 36.650390625 285.83984375 36.650390625 301.299804688 c 0
EndSplineSet
Validated: 33
EndChar

StartChar: nine
Encoding: 57 57 44
Width: 460
Flags: W
LayerCount: 2
Fore
SplineSet
205.639648438 627.610351562 m 0
 296.489452616 632.857097404 345.472885386 585.794632761 376.030273438 522.3203125 c 0
 389.900390625 493.5 390.490234375 421.73046875 390.490234375 421.73046875 c 1
 398.400390625 343.959960938 476.759765625 189.610351562 413.540039062 101.610351562 c 0
 335.66015625 -6.7900390625 197.759765625 -9.51953125 106.639648438 44.2900390625 c 0
 58.0400390625 72.990234375 93.9501953125 113.3203125 121.650390625 108.629882812 c 0
 145.1796875 104.650390625 164.16015625 73.0302734375 239.950195312 80.25 c 0
 293.129882812 85.3095703125 340.099609375 101.209960938 361.330078125 146.83984375 c 0
 385.799804688 199.379882812 369.629882812 224.51953125 361.120117188 284.91015625 c 1
 341.950195312 346.120117188 l 1
 294.952421438 307.359119378 174.501066429 283.0040386 75.5498046875 331.919921875 c 0
 11.58984375 363.559570312 -11.259765625 447.759765625 5.099609375 503.889648438 c 0
 22.58984375 563.879882812 62.0595703125 585.849609375 123.5 612.799804688 c 0
 147.490234375 623.3203125 180.549804688 626.190429688 205.639648438 627.610351562 c 0
205.16015625 564.790039062 m 2
 204.75 564.790039062 l 1
 194.200195312 564.26953125 l 1
 141.740234375 559.91015625 94.4404296875 530.280273438 78.0302734375 505.440429688 c 0
 49.2001953125 461.809570312 72.75 404.790039062 126.969726562 385.969726562 c 0
 163.440429688 373.330078125 192.099609375 365.780273438 256.889648438 380.700195312 c 0
 325.95770821 396.606959961 375.504932422 490.942765447 256.9296875 555.860351562 c 0
 242.620117188 563.709960938 209.280273438 564.690429688 205.16015625 564.790039062 c 2
EndSplineSet
Validated: 33
EndChar

StartChar: colon
Encoding: 58 58 45
Width: 181
Flags: W
LayerCount: 2
Fore
SplineSet
83.25 452.76953125 m 4
 158.8203125 400.830078125 80.98046875 318.76953125 47.8603515625 341.3203125 c 4
 -21.3603515625 388.4296875 50.25 475.459960938 83.25 452.76953125 c 4
57.73046875 160.33984375 m 4
 148.080078125 237.580078125 182.099609375 70.150390625 119.700195312 69.83984375 c 4
 57.2998046875 69.5302734375 24.4501953125 131.879882812 57.73046875 160.33984375 c 4
EndSplineSet
Validated: 33
EndChar

StartChar: asterisk
Encoding: 42 42 46
Width: 466
Flags: W
VStem: 142.34 61.79<237.017 404.892 486.711 664.48>
LayerCount: 2
Fore
SplineSet
142.33984375 320.370117188 m 0
 139.075497828 370.98698027 136.52017009 410.609825805 173.969726562 407.530273438 c 0
 212.139648438 404.360351562 202.1796875 331.4296875 204.129882812 301.349609375 c 0
 206.0703125 271.259765625 240.41015625 228.25 185.629882812 227.009765625 c 0
 149.129882812 226.1796875 144.290039062 290.290039062 142.33984375 320.370117188 c 0
185.400390625 441.790039062 m 0
 189.378659488 450.776987282 199.573757649 451.568555136 206.83984375 451.23046875 c 0
 229.400390625 450.099609375 263.5 434.599609375 285.990234375 426.620117188 c 0
 318.700195312 415.009765625 394.559570312 406.740234375 381.66015625 372.139648438 c 0
 368.700195312 337.370117188 308.1796875 349.580078125 275.469726562 361.1796875 c 0
 242.759765625 372.790039062 166.809570312 399.799804688 185.400390625 441.790039062 c 0
273.669921875 529.924804688 m 0
 294.534230375 542.162242498 368.975489238 582.673477632 385.91015625 548.375 c 0
 402.01953125 515.75 351.75 495.665039062 312.919921875 478.139648438 c 0
 282.91015625 464.594726562 215.780273438 439.919921875 198.969726562 481.611328125 c 0
 187.0703125 511.122070312 244.799804688 512.998046875 273.669921875 529.924804688 c 0
4.2099609375 554.508789062 m 0
 22.0376822219 592.556735039 46.2479765167 525.309779986 78.3203125 520.977539062 c 0
 104.755797182 517.407504382 165.450478813 483.506953443 154.690429688 451.080078125 c 1
 173.342485794 433.055913016 161.135306256 401.746031475 83.5498046875 384.26953125 c 0
 56.5 378.190429688 21.0302734375 344.4296875 10.9296875 371.559570312 c 0
 -4.90074724112 414.100746812 60.6457851841 437.804311765 93.3203125 448.809570312 c 1
 84.4911881949 450.418131386 64.9569813524 453.977030734 52.9501953125 462.237304688 c 0
 27.8798828125 479.495117188 -13.2998046875 517.071289062 4.2099609375 554.508789062 c 0
146.48046875 585.623046875 m 0
 150.928196514 631.52219442 156.731806773 691.41362161 204.389648438 686.759765625 c 0
 242.18205018 683.112118405 208.175830663 598.273628093 208.1796875 593.659179688 c 0
 208.200195312 559.245117188 203.709960938 479.731445312 169.1796875 482.446289062 c 0
 134.469726562 485.173828125 142.1796875 541.245117188 146.48046875 585.623046875 c 0
EndSplineSet
Validated: 33
EndChar

StartChar: percent
Encoding: 37 37 47
Width: 568
Flags: W
LayerCount: 2
Fore
SplineSet
138.25 87.83984375 m 0
 80.58984375 35.580078125 64.5834576412 112.217056176 107.26953125 147.540039062 c 0
 190 216 321.469726562 391.860351562 398.690429688 533.740234375 c 4
 433.58984375 597.849609375 485.593364514 550.914866162 450 486.360351562 c 4
 409 412 195.900390625 140.120117188 138.25 87.83984375 c 0
35.650390625 541.580078125 m 0
 77.169921875 564.290039062 112.419921875 573.059570312 142.610351562 565.150390625 c 0
 180.150390625 555.299804688 210.139648438 497.41015625 208.969726562 458.23046875 c 0
 208.389648438 439 187.370117188 399.889648438 157.16015625 375.040039062 c 0
 94.5336227888 323.529867508 -5.68716101189 360.486151569 0.23046875 469.150390625 c 0
 1.849609375 499.139648438 12.2802734375 528.809570312 35.650390625 541.580078125 c 0
146.580078125 461.790039062 m 0
 156.605290382 520.629543364 61.7813333885 526.841243125 56.23046875 461.549804688 c 0
 54.75 444.099609375 55.4404296875 420.530273438 85.0302734375 411.849609375 c 0
 126.759765625 399.639648438 141.959960938 434.66015625 146.580078125 461.790039062 c 0
480.190429688 238.780273438 m 4
 519.389648438 212.599609375 534.580078125 182.169921875 541.6796875 151.780273438 c 4
 550.490234375 114.01953125 513.73046875 60.6298828125 478.849609375 43.490234375 c 4
 461.75 35.0703125 417.709960938 35.5 381.879882812 50.6796875 c 4
 311.139648438 80.7001953125 317.759765625 161.120117188 341.110351562 194.959960938 c 4
 351.629882812 208.959960938 379.25 226.799804688 400.280273438 236.509765625 c 4
 427.3203125 248.98046875 458.150390625 253.509765625 480.190429688 238.780273438 c 4
456.099609375 97.5400390625 m 4
 522.92996167 119.475813526 459.717487349 202.369423768 414.5703125 183.190429688 c 4
 398.58984375 176.41015625 375.870117188 159.219726562 382.01953125 129.030273438 c 4
 390.690429688 86.4404296875 430.169921875 89.01953125 456.099609375 97.5400390625 c 4
EndSplineSet
EndChar

StartChar: ampersand
Encoding: 38 38 48
Width: 562
Flags: W
LayerCount: 2
Fore
SplineSet
146.236328125 688.379882812 m 4
 177.179074294 696.690880559 261.629038288 698.479922226 288.24609375 599.3203125 c 4
 303.512695312 542.459960938 281.536132812 478.259765625 227.69140625 409.419921875 c 5
 261.95703125 367.870117188 320.544921875 305.120117188 384.577148438 245.450195312 c 5
 387.742773586 282.239433617 357.253879 398.93599321 397.23046875 409.669921875 c 4
 452.737304017 424.598455695 471.082898306 300.560812398 441.143554688 195.860351562 c 5
 554.138455767 92.4493946588 564.8041859 82.688305011 546.717773438 54.98046875 c 4
 541.972731545 47.7104440243 515.489948712 30.1286229061 487.1328125 56.4501953125 c 6
 417.73828125 123.040039062 l 5
 299.445041229 -76.5297169485 52.4216770384 -56.6140883152 7.28515625 111.51953125 c 4
 -7.2939453125 165.889648438 0.0087890625 220.870117188 29.1953125 276.469726562 c 4
 43.5322265625 303.8203125 84.4677734375 348.139648438 141.48046875 413.150390625 c 5
 117.049804688 447.129882812 79.8056640625 484.740234375 70.1845703125 520.599609375 c 4
 55.3297476141 575.941975846 89.451834676 673.113037921 146.236328125 688.379882812 c 4
138.489257812 519.790039062 m 4
 154.362304688 498.049804688 183.454101562 459.009765625 183.454101562 459.009765625 c 5
 183.454101562 459.009765625 229.307617188 521.16015625 231.3828125 561.440429688 c 4
 232.0703125 574.76953125 223.553710938 605.139648438 206.265625 617.91015625 c 4
 191.821289062 628.5703125 171.04296875 624.349609375 162.392578125 617.200195312 c 5
 148.178324962 613.449020577 114.600580731 552.48883633 138.489257812 519.790039062 c 4
91.9599609375 252.450195312 m 4
 14.5555801089 118.054702543 118.000044251 31.9994624172 229.497070312 61.990234375 c 4
 286.037109375 77.2001953125 337.88671875 116.98046875 366.170898438 175.950195312 c 5
 336.391601562 201.879882812 267.037109375 269.98046875 182.362304688 364.040039062 c 5
 142.868164062 318.879882812 104.639648438 274.490234375 91.9599609375 252.450195312 c 4
EndSplineSet
Validated: 33
EndChar

StartChar: dollar
Encoding: 36 36 49
Width: 478
Flags: W
HStem: 514.39 66.79<197.19 335.776>
VStem: 111.54 69.3398<582.176 688.013>
LayerCount: 2
Fore
SplineSet
248.0703125 280.030273438 m 5
 248.0703125 280.030273438 266.030273438 211.349609375 274.33984375 183.209960938 c 6
 300.360351562 100.290039062 l 5
 300.360351562 100.290039062 339.709960938 106.309570312 351.459960938 111.389648438 c 4
 404.75 134.450195312 422.360351562 214.650390625 294.349609375 261.509765625 c 4
 289.66015625 263.23046875 248.0703125 280.030273438 248.0703125 280.030273438 c 5
132.719726562 504.08984375 m 6
 125.430146967 502.256593481 -4.64379033313 455.319148462 160.440429688 385.940429688 c 5
 153.849609375 414.620117188 l 6
 150.209960938 430.6796875 146.690429688 446.419921875 143.349609375 461.669921875 c 6
 133.4296875 504.309570312 l 5
 133.440429688 504.299804688 132.719726562 504.08984375 132.719726562 504.08984375 c 6
180.879882812 615.889648438 m 4
 181.4296875 607.6796875 186.809570312 581.1796875 186.809570312 581.1796875 c 5
 253.676402874 582.351890271 371.951733365 584.425304919 335.780273438 525.759765625 c 4
 320.879882812 501.58984375 249.08984375 510.860351562 205.129882812 514.040039062 c 5
 197.190429688 514.389648438 l 5
 200.389648438 494.190429688 l 6
 206.309570312 458.809570312 216.469726562 420.299804688 225.169921875 380.08984375 c 5
 234.259765625 351.75 l 6
 235.164494632 351.420834199 321.058348614 322.464274603 325.379882812 320.669921875 c 4
 470.277770894 260.431387789 520.018570921 96.8654874201 359.419921875 47.9296875 c 5
 322.879882812 43.1298828125 l 5
 335.809570312 8.25 l 6
 368.110351562 -81.3603515625 291.669921875 -113.900390625 259.719726562 -6.2197265625 c 4
 257.719726562 0.509765625 249.009765625 31.5595703125 249.009765625 31.5595703125 c 5
 249.009765625 31.5595703125 238.330078125 30.990234375 234.669921875 30.7998046875 c 4
 157.190429688 26.6396484375 75.51953125 91.400390625 104.440429688 126.150390625 c 4
 139.879882812 168.709960938 166.280273438 112.110351562 180.41015625 104.809570312 c 4
 199.740234375 94.8095703125 230.549804688 95.3095703125 230.549804688 95.3095703125 c 5
 224.309570312 124.75 l 5
 213.290039062 167.509765625 201.129882812 215.900390625 189 265.639648438 c 6
 181.150390625 298.190429688 l 5
 79.7099764376 340.816746866 3.92283488403 390.112161446 0.1298828125 454.599609375 c 4
 -2.7802734375 504.0703125 43.5 540.48046875 104.83984375 561.440429688 c 5
 121.83984375 566.639648438 l 5
 121.83984375 566.639648438 112.629882812 621.5703125 111.540039062 634.530273438 c 4
 107.709960938 679.900390625 124.5703125 696.08984375 145.169921875 693.790039062 c 4
 171.650390625 690.8203125 178.08984375 657.290039062 180.879882812 615.889648438 c 4
EndSplineSet
Validated: 37
EndChar

StartChar: numbersign
Encoding: 35 35 50
Width: 542
Flags: W
HStem: 200.12 67.46<26.8971 58.4551> 409.11 71.3994<96.6675 139.61>
VStem: 27.4697 76.0898<80.0099 169.299> 184.17 75.46<34.6495 121.312>
LayerCount: 2
Fore
SplineSet
195.309570312 370.690429688 m 2
 184.3203125 344.379882812 174 318.129882812 164.5 292.580078125 c 1
 149.059570312 256.530273438 l 1
 219.482668744 246.999198197 219.482668744 246.999198197 219.790039062 246.950195312 c 2
 241.23046875 243.419921875 l 1
 253.015206597 281.005139222 293.779234758 387.187284778 294.309570312 388.639648438 c 2
 298.209960938 399.3203125 l 1
 280.8203125 401.91015625 l 2
 267.309570312 403.719726562 253.509765625 405.3203125 239.549804688 406.6796875 c 2
 211.809570312 408.459960938 l 1
 211.830078125 408.440429688 195.309570312 370.690429688 195.309570312 370.690429688 c 2
281.169921875 553 m 0
 270.58984375 534.469726562 260.169921875 515.049804688 250.01953125 495.059570312 c 1
 241.73046875 472.780273438 l 1
 254.860351562 471.330078125 l 2
 308.017018385 465.160084377 308.017018385 465.160084377 322.280273438 463.099609375 c 1
 327.870117188 477.08984375 l 2
 352.830078125 537.860351562 369.259765625 588.540039062 398.919921875 590.5 c 0
 461.503159018 594.446376003 418.459706677 498.908217724 395.5703125 449.450195312 c 1
 455.512212436 438.30443139 455.512212436 438.30443139 457.98046875 437.459960938 c 0
 508.5 420.129882812 480.629882812 361.990234375 415.8203125 375.290039062 c 0
 406.1796875 377.26953125 395.860351562 379.389648438 384.940429688 381.580078125 c 2
 369.799804688 384.5703125 l 1
 364.219726562 372.209960938 l 2
 363.661290806 370.948165345 341.98068926 320.782543117 316.580078125 242.709960938 c 2
 312.099609375 228.940429688 l 1
 348.976049105 221.636892681 389.049214782 213.700230394 402.549804688 208.73046875 c 0
 461.5 187.040039062 454.530273438 114.889648438 392.099609375 137.419921875 c 0
 354.128418457 151.128755695 297.090822498 163.655641739 294.790039062 164.150390625 c 1
 260.201601714 56.9026696725 260.201601714 56.9026696725 259.629882812 53.83984375 c 0
 248.940429688 -3.349609375 183.200195312 -12.7197265625 184.169921875 32.990234375 c 0
 184.650390625 55.830078125 201.379882812 105.379882812 216.700195312 161.330078125 c 2
 221.830078125 179.23046875 l 1
 193.915655196 184.055049573 159.717647551 188.089063659 150.669921875 189.150390625 c 2
 127.669921875 191.059570312 l 1
 119.314881001 164.347190663 109.235636048 127.494557059 103.559570312 97.4501953125 c 0
 92.7099609375 40.2001953125 10.66015625 17.9599609375 27.4697265625 98.3095703125 c 0
 28.2253700969 101.917589971 34.3590207938 130.314026828 58.7900390625 198.33984375 c 1
 46.4296875 200.120117188 l 1
 -12.73046875 212.120117188 -15.2900390625 265.950195312 38.3896484375 267.580078125 c 0
 48.0249815314 267.870242002 61.7178973639 267.128221468 83.240234375 265.129882812 c 1
 93.5 292.360351562 l 2
 104.08984375 320.150390625 115.209960938 348.700195312 126.25 376.639648438 c 2
 139.610351562 410.1796875 l 1
 112.490234375 409.110351562 l 1
 51.6201171875 404.530273438 62.5595703125 475.780273438 120.150390625 480.509765625 c 0
 123.766831886 480.806424096 136.863990017 481.755967902 167.889648438 479.799804688 c 1
 215.461642824 595.309915521 229.809615527 630.148394305 265.759765625 627.9296875 c 0
 291.190429688 626.370117188 307.129882812 598.440429688 281.169921875 553 c 0
EndSplineSet
Validated: 33
EndChar

StartChar: exclam
Encoding: 33 33 51
Width: 160
Flags: W
VStem: 37.9805 79.2695<225.522 605.024>
LayerCount: 2
Fore
SplineSet
46.58984375 -31.2998046875 m 0
 -60.5302734375 9.4296875 46.080078125 114.459960938 80.41015625 62.1201171875 c 0
 114.73046875 9.7802734375 86.0498046875 -46.2998046875 46.58984375 -31.2998046875 c 0
92.830078125 636.91015625 m 0
 137.599609375 647.200195312 120.290039062 488.849609375 117.25 419.83984375 c 0
 110.5 266.110351562 131.6796875 213.3203125 69.9404296875 221.959960938 c 1
 22.16015625 233.059570312 25.650390625 273.240234375 37.98046875 439.870117188 c 0
 43.099609375 509.169921875 39.6904296875 624.690429688 92.830078125 636.91015625 c 0
EndSplineSet
Validated: 33
EndChar

StartChar: parenleft
Encoding: 40 40 52
Width: 226
Flags: W
LayerCount: 2
Fore
SplineSet
166.229492188 673.509765625 m 4
 202.533203125 715.08984375 240.963867188 662.629882812 206.284179688 619.3203125 c 4
 160.528320312 562.169921875 62.4287109375 474.759765625 71.9501953125 299.599609375 c 4
 78.033203125 187.629882812 173.422851562 103.139648438 210.874023438 49.2099609375 c 4
 241.284179688 5.41015625 211.884765625 -50.330078125 181.36328125 -21.01953125 c 5
 181.36328125 -21.01953125 12.1904296875 158.719726562 1.35546875 299.33984375 c 4
 -15.0556640625 512.200195312 142.219726562 646.01953125 166.229492188 673.509765625 c 4
EndSplineSet
Validated: 33
EndChar

StartChar: parenright
Encoding: 41 41 53
Width: 256
Flags: W
VStem: 157.489 67.3408<212.926 436.838>
LayerCount: 2
Fore
SplineSet
224.830078125 309.51953125 m 4
 220.969726562 168.599609375 67.892578125 -18.990234375 67.892578125 -18.990234375 c 5
 40.1357421875 -49.740234375 9.525390625 4.490234375 36.517578125 49.6904296875 c 4
 69.75390625 105.33984375 156.83984375 194.280273438 157.489257812 306.370117188 c 4
 158.513671875 481.709960938 60.927734375 564.25 14.66015625 619.08984375 c 4
 -20.4072265625 660.66015625 13.833984375 714.900390625 50.365234375 675.129882812 c 4
 74.5341796875 648.83984375 230.685546875 522.8203125 224.830078125 309.51953125 c 4
EndSplineSet
Validated: 33
EndChar

StartChar: plus
Encoding: 43 43 54
Width: 377
Flags: W
HStem: 256.47 54.21<204.5 350.577> 257.69 63.2998<24.9756 133.02>
VStem: 122.47 64.9404<139.78 256.127>
LayerCount: 2
Fore
SplineSet
224.290039062 430.099609375 m 4x60
 220.4296875 404.959960938 216.900390625 386.879882812 209.559570312 360.290039062 c 5
 201.830078125 317.919921875 l 5
 204.5 310.6796875 l 5
 253.139648438 307 365.110351562 330.73046875 350.740234375 272.059570312 c 4
 341.349609375 233.740234375 272.440429688 257.040039062 201.91015625 256.469726562 c 5xa0
 190.349609375 258.23046875 l 5
 183.982779547 213.205746286 194.219000569 178.310146325 187.41015625 151.669921875 c 4
 180.740234375 125.58984375 125.990234375 100.01953125 122.469726562 152.889648438 c 4
 121.370117188 169.419921875 124.610351562 200.919921875 130.01953125 238 c 6
 133.01953125 257.629882812 l 5
 132.440429688 257.690429688 l 6
 79.080078125 262.4296875 10.1796875 262.790039062 14.169921875 304.400390625 c 4
 16.669921875 330.51953125 64.2802734375 323.219726562 117.780273438 320.990234375 c 5
 147.450195312 319.08984375 l 5
 152.419921875 345.549804688 l 6
 165.091993644 410.458396863 157.782070797 449.545485486 174.440429688 468.73046875 c 4
 199.299804688 497.48046875 230.709960938 472.040039062 224.290039062 430.099609375 c 4x60
EndSplineSet
Validated: 33
EndChar

StartChar: comma
Encoding: 44 44 55
Width: 178
Flags: W
LayerCount: 2
Fore
SplineSet
17.2001953125 -123.139648438 m 0
 -21 -106.860351562 15.23046875 -44.5703125 31.0595703125 -17.2001953125 c 0
 48.91015625 13.669921875 60.41015625 76.1201171875 100.549804688 47.099609375 c 0
 137.879882812 20.1103515625 116.780273438 -31.759765625 92.740234375 -62.7001953125 c 0
 73.349609375 -87.650390625 62.5498046875 -142.459960938 17.2001953125 -123.139648438 c 0
EndSplineSet
Validated: 33
EndChar

StartChar: period
Encoding: 46 46 56
Width: 148
Flags: W
HStem: -4.79004 109.05<19.3567 84.0515>
LayerCount: 2
Fore
SplineSet
66.919921875 -4.7900390625 m 0
 46.330078125 -10.1796875 17.099609375 9.66015625 4.2099609375 28.3203125 c 0
 -11.330078125 50.830078125 25.0703125 98.8603515625 47.9697265625 104.259765625 c 0
 64.240234375 108.08984375 94.2001953125 76.2998046875 100.040039062 57.9296875 c 0
 105.620117188 40.349609375 87.51953125 0.6103515625 66.919921875 -4.7900390625 c 0
EndSplineSet
Validated: 33
EndChar

StartChar: quotedbl
Encoding: 34 34 57
Width: 220
Flags: W
HStem: 455.11 217.42
VStem: 3.63965 53.8203<481.919 671.699> 111.48 60.7998<465.69 667.567>
LayerCount: 2
Fore
SplineSet
49.91015625 672.530273438 m 4
 86.83984375 664.709960938 59.1103515625 614.450195312 57.4599609375 582.040039062 c 4
 55.7998046875 549.629882812 74.2001953125 475.009765625 40 478.08984375 c 4
 -13.2900390625 484.76953125 1.16015625 539.240234375 3.6396484375 581.900390625 c 4
 5.6396484375 616.290039062 -8.41015625 684.879882812 49.91015625 672.530273438 c 4
136.1796875 671.469726562 m 4
 168.740234375 679.370117188 171.16015625 596.650390625 172.280273438 560.370117188 c 4
 173.549804688 519.440429688 192.599609375 451.870117188 153.280273438 455.110351562 c 4
 116.719726562 458.129882812 108.629882812 521.379882812 111.48046875 566.219726562 c 4
 113.780273438 602.370117188 97.5400390625 662.099609375 136.1796875 671.469726562 c 4
EndSplineSet
Validated: 33
EndChar

StartChar: slash
Encoding: 47 47 58
Width: 332
Flags: W
LayerCount: 2
Fore
SplineSet
69.2548828125 -1.5615234375 m 0
 22.189453125 -82.9521484375 -21.443359375 4.7099609375 12.8583984375 61.83203125 c 0
 74.181640625 163.82421875 173.432617188 395.514648438 223.875 587.53125 c 0
 251.360351562 692.155273438 328.3515625 646.55859375 295.251953125 550.177734375 c 0
 262.151367188 453.797851562 116.321289062 79.828125 69.2548828125 -1.5615234375 c 0
EndSplineSet
Validated: 33
EndChar

StartChar: semicolon
Encoding: 59 59 59
Width: 182
Flags: W
VStem: 43.9697 75.8604<30.0481 207.307>
LayerCount: 2
Fore
SplineSet
35.25 495.629882812 m 0
 121.459960938 577.549804688 156.16015625 397.370117188 96.009765625 397.75 c 0
 35.8603515625 398.120117188 3.48046875 465.450195312 35.25 495.629882812 c 0
51.3095703125 5.150390625 m 0
 6.830078125 12.9296875 32.7001953125 93.009765625 43.9697265625 128.169921875 c 0
 56.6904296875 167.830078125 55.9404296875 241.26953125 105.1796875 219.690429688 c 0
 150.98046875 199.620117188 139.1796875 135.440429688 119.830078125 93.990234375 c 0
 104.219726562 60.5703125 104.110351562 -4.080078125 51.3095703125 5.150390625 c 0
EndSplineSet
Validated: 33
EndChar

StartChar: less
Encoding: 60 60 60
Width: 504
Flags: W
LayerCount: 2
Fore
SplineSet
357.900390625 552.76953125 m 0
 391.12296551 585.64236195 439.987066919 547.702605022 418.5703125 516.290039062 c 0
 397.150390625 484.889648438 299.809570312 405.919921875 229.370117188 364.349609375 c 0
 198.73046875 346.26953125 160.099609375 319.139648438 123.41015625 297.969726562 c 2
 111.879882812 291.549804688 l 1
 128.540039062 278.990234375 l 2
 156.1796875 257.690429688 184.379882812 235.309570312 208.41015625 222.16015625 c 0
 272.48046875 187.080078125 387.23046875 123.4296875 401.5 118.360351562 c 0
 445.549804688 102.709960938 432.610351562 42.2197265625 395.01953125 47.8603515625 c 0
 357.419921875 53.5 243.990234375 106.830078125 175.940429688 152.190429688 c 0
 114.620117188 193.059570312 3.4296875 247.9296875 0.849609375 295.240234375 c 1
 0.9697265625 299.599609375 l 1
 -6.33859332635 342.769684998 120.563616654 381.228456356 180.48046875 424.01953125 c 0
 239.919921875 466.469726562 347.129882812 542.120117188 357.900390625 552.76953125 c 0
EndSplineSet
Validated: 33
EndChar

StartChar: greater
Encoding: 62 62 61
Width: 496
Flags: W
LayerCount: 2
Fore
SplineSet
22.4921875 532.47265625 m 4
 0.180274119191 563.245994892 47.9143216793 602.585435379 82.0869140625 570.681640625 c 4
 93.15625 560.345703125 202.494140625 487.79296875 263.131835938 447.064453125 c 4
 324.267032733 406.001406755 452.202434879 371.210193332 446.130859375 327.841796875 c 5
 446.370117188 323.495117188 l 5
 445.15625 276.129882812 335.583984375 218.094726562 275.458984375 175.477539062 c 4
 208.737304688 128.18359375 96.8779296875 71.62890625 59.4609375 64.9150390625 c 4
 22.0458984375 58.201171875 7.3740234375 118.291992188 50.9599609375 135.193359375 c 4
 65.0810546875 140.668945312 177.955078125 207.588867188 240.99609375 244.490234375 c 4
 264.63671875 258.328125 292.189453125 281.504882812 319.206054688 303.58984375 c 6
 335.499023438 316.620117188 l 5
 323.783203125 322.70703125 l 6
 286.505859375 342.8203125 247.112304688 368.830078125 215.965820312 386.024414062 c 4
 144.368164062 425.548828125 44.8056640625 501.6953125 22.4921875 532.47265625 c 4
EndSplineSet
Validated: 33
EndChar

StartChar: asciicircum
Encoding: 94 94 62
Width: 430
Flags: W
HStem: 637.56 20G<210.35 227.79>
LayerCount: 2
Fore
SplineSet
381.75 376.919921875 m 0
 404.668026456 350.322883261 373.716592784 315.669878275 351.290039062 333.33984375 c 0
 328.860351562 351 274.6796875 421.990234375 247.150390625 476.900390625 c 4
 231.795274529 507.544231795 217.426614059 528.724127098 198.629882812 568.6796875 c 5
 188.370117188 556.83984375 l 6
 170.990234375 537.219726562 152.76953125 517.240234375 141.6796875 499.91015625 c 4
 112.110351562 453.700195312 58.51953125 376.98046875 53.990234375 366.549804688 c 0
 40.009765625 334.33984375 -4.650390625 347.139648438 1.5 375.01953125 c 0
 7.66015625 402.900390625 53.4296875 485.169921875 90.919921875 533.830078125 c 0
 124.690429688 577.6796875 171.509765625 658.1796875 207.099609375 657.6796875 c 1
 210.349609375 657.370117188 l 1
 212.23046875 657.559570312 l 1
 243.349609375 657.540039062 266.509765625 561.740234375 294.370117188 516.48046875 c 0
 323.129882812 469.759765625 374.3203125 385.540039062 381.75 376.919921875 c 0
EndSplineSet
Validated: 33
EndChar

StartChar: copyright
Encoding: 169 169 63
Width: 524
Flags: W
LayerCount: 2
Fore
SplineSet
237.969726562 493.360351562 m 0
 265.629882812 504.099609375 310.669921875 497.01953125 308.549804688 471.139648438 c 0
 305.049804688 428.360351562 262.990234375 447.0703125 230.559570312 429.940429688 c 0
 190.450195312 408.740234375 173.75 368.099609375 186.549804688 330.889648438 c 0
 198.299804688 296.76953125 211.129882812 290.6796875 242.860351562 273.759765625 c 0
 274.580078125 256.849609375 352.110351562 276.1796875 346.75 236.540039062 c 0
 340.870117188 192.950195312 264.08984375 204.23046875 228.389648438 217.209960938 c 0
 199.459960938 227.740234375 147.469726562 270.290039062 136.740234375 304.919921875 c 0
 112.48046875 383.290039062 142.900390625 416.469726562 163.509765625 445.599609375 c 0
 184.5 475.26953125 215.3203125 484.580078125 237.969726562 493.360351562 c 0
425.419921875 536.719726562 m 0
 483.629882812 434.509765625 509.014648438 345.990234375 495.403320312 267.530273438 c 0
 478.495117188 170.009765625 350.530273438 83.66015625 260.669921875 80.0498046875 c 0
 216.58984375 78.2802734375 123.91015625 125.33984375 62.509765625 198.3203125 c 0
 -33.419921875 312.33984375 -20.509765625 488.940429688 112.120117188 578.240234375 c 1
 193.019465615 627.854662769 367.239399744 638.932739933 425.419921875 536.719726562 c 0
380.040039062 483.400390625 m 0
 331.546033047 581.866329508 105.496986248 595.481390701 66.919921875 402.76953125 c 0
 45.1796875 294.1796875 152.809570312 174.76953125 213.66015625 157.58984375 c 0
 288.83984375 136.360351562 426.209960938 184.51953125 427.700195312 292.860351562 c 0
 428.459960938 347.900390625 422.509765625 399.809570312 380.040039062 483.400390625 c 0
EndSplineSet
Validated: 33
EndChar

StartChar: registered
Encoding: 174 174 64
Width: 560
Flags: W
VStem: 157.337 47.8125<358.241 453.128>
LayerCount: 2
Fore
SplineSet
74.7568359375 544.407226562 m 0
 133.888953856 648.34503148 310.90623735 637.069427104 393.079101562 586.620117188 c 1
 527.837890625 495.817382812 540.953125 316.25 443.487304688 200.307617188 c 0
 381.106445312 126.100585938 286.934570312 78.2490234375 242.151367188 80.048828125 c 0
 150.84765625 83.7216796875 20.833984375 171.528320312 3.654296875 270.686523438 c 0
 -10.1748046875 350.4609375 15.6171875 440.47265625 74.7568359375 544.407226562 c 0
439.005859375 408.197265625 m 0
 399.816353871 604.164339033 170.129038817 590.298535648 120.87109375 490.188476562 c 0
 77.7119140625 405.190429688 71.6708984375 352.40625 72.4404296875 296.439453125 c 0
 73.9560546875 186.283203125 213.525390625 137.306640625 289.912109375 158.897460938 c 0
 351.744140625 176.3671875 461.095703125 297.78125 439.005859375 408.197265625 c 0
170.635742188 491.950195312 m 0
 195.641601562 507.049804688 271.958984375 507.48046875 307.28515625 465.23046875 c 0
 342.612304688 422.969726562 332.173828125 368.599609375 315.834960938 346.23046875 c 0
 292.477539062 314.25 264.594726562 314.990234375 264.594726562 314.990234375 c 1
 274.743164062 309.790039062 376.9609375 253.419921875 344.245117188 212.509765625 c 0
 325.537109375 189.120117188 210.364257812 291.650390625 208.048828125 289.040039062 c 0
 204.752929688 284.879882812 213.197265625 203.259765625 185.927734375 208.990234375 c 0
 139.919921875 218.66015625 160.567382812 269.690429688 157.267578125 331.259765625 c 1
 157.336914062 332.360351562 l 1
 154.133789062 392.3203125 145.629882812 476.83984375 170.635742188 491.950195312 c 0
205.149414062 361.459960938 m 1
 268.334960938 347.690429688 282.663085938 376.969726562 282.4609375 412.01953125 c 0
 282.177734375 461.120117188 203.225585938 457.700195312 203.365234375 449.309570312 c 0
 203.763671875 424.9296875 197.510742188 384.900390625 205.149414062 361.459960938 c 1
EndSplineSet
Validated: 33
EndChar

StartChar: c
Encoding: 99 99 65
Width: 472
Flags: W
LayerCount: 2
Fore
SplineSet
375.599609375 556.240234375 m 0
 374.240234375 486.76953125 216.309570312 497.66015625 142.490234375 443.48046875 c 0
 68.669921875 389.309570312 56.23046875 315.740234375 66.33984375 259.870117188 c 0
 76.4404296875 203.990234375 137.8203125 143.110351562 203.120117188 108.240234375 c 0
 314.219726562 48.91015625 440.73046875 91.4599609375 456.110351562 47.2998046875 c 0
 472.209960938 1.08984375 265.240234375 -21.2001953125 174.280273438 36.6298828125 c 0
 93.740234375 87.830078125 47.8603515625 128.16015625 13.48046875 224.41015625 c 0
 -33.41015625 355.6796875 50.91015625 473.740234375 130.360351562 516.299804688 c 0
 209.809570312 558.860351562 376.41015625 597.83984375 375.599609375 556.240234375 c 0
EndSplineSet
Validated: 33
EndChar

StartChar: a
Encoding: 97 97 66
Width: 388
Flags: W
LayerCount: 2
Fore
SplineSet
225.206054688 633.662109375 m 5
 269.059570312 539.392578125 365.549804688 168.155273438 401.375 61.1904296875 c 4
 418.999023438 5.12890625 371.897460938 8.3271484375 353.315429688 29.9248046875 c 5
 335.500976562 59.4921875 313.28515625 176.424804688 295.469726562 205.991210938 c 5
 260.364257812 217.138671875 173.622070312 191.755859375 129.193359375 200.469726562 c 5
 88.208984375 178.631835938 81.5166015625 -11.8994140625 19.8583984375 7.6689453125 c 4
 -25.5458984375 18.205078125 18.8759765625 138.155273438 62.8779296875 255.793945312 c 4
 106.879882812 373.43359375 128.784179688 532.934570312 138.25 626.801757812 c 4
 142.622070312 670.150390625 204.283203125 694.904296875 225.206054688 633.662109375 c 5
194.361328125 554.845703125 m 5
 181.080078125 537.3359375 170.376953125 364.381835938 128.768554688 249.168945312 c 5
 177.06640625 263.467773438 260.62890625 273.208007812 276.622070312 274.146484375 c 5
 249.595703125 369.043945312 202.634765625 513.7890625 194.361328125 554.845703125 c 5
EndSplineSet
Validated: 33
EndChar

StartChar: f
Encoding: 102 102 67
Width: 329
Flags: W
LayerCount: 2
Fore
SplineSet
167.91015625 622.790039062 m 0
 237.370117188 617.76953125 314.919921875 627.559570312 310.849609375 585.129882812 c 0
 304.120117188 515.150390625 139.3203125 573.040039062 71.830078125 540.540039062 c 1
 57.4296875 527.299804688 123.370117188 294.009765625 128.08984375 294.309570312 c 0
 228.889648438 300.379882812 302.120117188 322.940429688 293.98046875 270.879882812 c 0
 284.58984375 210.91015625 138.48046875 255.219726562 145.419921875 202.490234375 c 0
 155.959960938 122.549804688 170.830078125 -2.3896484375 121.450195312 3.1796875 c 0
 63.349609375 9.740234375 90.080078125 162.740234375 63.0302734375 248.969726562 c 0
 25.0302734375 366.4296875 -14.759765625 582.150390625 5.4501953125 596.780273438 c 1
 20.0498046875 613.01953125 88.7099609375 628.509765625 167.91015625 622.790039062 c 0
EndSplineSet
Validated: 33
EndChar

StartChar: b
Encoding: 98 98 68
Width: 414
Flags: W
HStem: 302.98 48.5791<167.179 189.546>
LayerCount: 2
Fore
SplineSet
233.200195312 304 m 5
 185.509765625 302.98046875 l 5
 156.48046875 293.509765625 l 6
 140.669921875 289.299804688 125.700195312 285.76953125 112.48046875 281.580078125 c 4
 102.629882812 276.040039062 137.5703125 163.8203125 150.0703125 77.9501953125 c 5
 151.540039062 61.6904296875 l 5
 169.389648438 62.2998046875 l 5
 226.969726562 69.6796875 294.629882812 94.3203125 331.780273438 141.139648438 c 4
 382.876277272 205.529027624 325.220096614 296.116978896 233.200195312 304 c 5
258.360351562 473.5 m 4
 246.653121876 544.407259167 144.356004105 600.076825561 71.8603515625 527.940429688 c 5
 49.990234375 515.889648438 86.099609375 357.509765625 100.849609375 351.559570312 c 5
 168.099609375 352.580078125 268.349609375 392.830078125 258.360351562 473.5 c 4
7.2099609375 581.860351562 m 4
 69.2799407697 641.619339291 170.675102789 642.14292195 234.51953125 597.099609375 c 4
 298.08984375 552.26953125 347.9296875 467.58984375 297.0703125 386.040039062 c 5
 272.139648438 357.91015625 l 5
 287.969726562 356.0703125 l 5
 361.799804688 333.309570312 435.139648438 243.259765625 415.889648438 160.860351562 c 4
 394.599609375 69.76953125 284.3203125 20.6396484375 202.309570312 12.2197265625 c 6
 151.66015625 6.759765625 l 6
 135.379882812 5 114.23046875 0.9697265625 103.919921875 4.240234375 c 4
 93.6201171875 7.51953125 92.6396484375 19.2197265625 89.830078125 26.419921875 c 4
 66.240234375 93.0595703125 58.33984375 215.740234375 43.830078125 284.629882812 c 4
 22.7197265625 384.83984375 -16.08984375 559.419921875 7.2099609375 581.860351562 c 4
EndSplineSet
Validated: 33
EndChar

StartChar: d
Encoding: 100 100 69
Width: 419
Flags: W
LayerCount: 2
Fore
SplineSet
0.6201171875 586.280273438 m 0
 -13.5498046875 652.5703125 220.709960938 627.309570312 312.459960938 525.030273438 c 0
 460.349451864 360.167302642 443.14236364 28.3963379415 156.400390625 4.58984375 c 0
 99.6201171875 -0.1201171875 72.5 24.3095703125 66.0595703125 46.330078125 c 0
 61.0400390625 63.509765625 70.4404296875 78.0302734375 101.98046875 74.419921875 c 1
 110.26953125 125.740234375 14.259765625 522.400390625 0.6201171875 586.280273438 c 0
77 552.419921875 m 1
 98.4501953125 497.400390625 173.940429688 125.450195312 164.58984375 80.400390625 c 0
 162.3203125 52.83984375 366.490234375 94.8701171875 331.76953125 346.08984375 c 0
 307.599609375 520.969726562 107.620117188 567.759765625 77 552.419921875 c 1
EndSplineSet
Validated: 33
EndChar

StartChar: e
Encoding: 101 101 70
Width: 394
Flags: W
LayerCount: 2
Fore
SplineSet
331.51953125 608.98046875 m 0
 345.860351562 540.41015625 72.6201171875 578.469726562 76.919921875 551.1796875 c 0
 83.7900390625 507.610351562 99.8798828125 387.389648438 103.639648438 345.0703125 c 0
 104.33984375 337.139648438 112.75 328.559570312 120.900390625 330.950195312 c 0
 166.849609375 344.4296875 299.110351562 371.830078125 300.120117188 310.650390625 c 0
 300.860351562 264.76953125 100.759765625 278.23046875 108.200195312 247.8203125 c 0
 116.669921875 205.650390625 119.0703125 128.240234375 122.940429688 87.6103515625 c 0
 127.586435804 39.1416787315 340.247749774 145.99062338 363.610351562 92.4599609375 c 0
 372.629882812 71.7998046875 368.4296875 43.3896484375 344.690429688 40.5703125 c 0
 268.040039062 31.4599609375 109.629882812 -24.5400390625 79.2802734375 17.419921875 c 0
 57.9249661805 46.3845914879 45.9739785505 146.483861834 41.1396484375 316.669921875 c 0
 39.2001953125 384.860351562 32.5498046875 470.860351562 1.1298828125 582.58984375 c 0
 -3.7998046875 600.120117188 7.8798828125 616.290039062 27.16015625 618.559570312 c 0
 44.7197265625 620.629882812 66.4501953125 622.41015625 88.0703125 622.120117188 c 0
 137.309570312 621.509765625 320.120117188 663.530273438 331.51953125 608.98046875 c 0
EndSplineSet
Validated: 33
EndChar

StartChar: g
Encoding: 103 103 71
Width: 549
Flags: W
LayerCount: 2
Fore
SplineSet
137.330078125 563.879882812 m 0
 219.290039062 612.509765625 445.780273438 593.709960938 419.290039062 540.740234375 c 0
 390.469726562 482.009765625 249.849609375 557.030273438 176.3203125 509.919921875 c 0
 139.91015625 486.599609375 65.3701171875 432.540039062 67.4404296875 316.540039062 c 0
 68.599609375 251.280273438 123.690429688 165.349609375 176.0703125 125.940429688 c 0
 228.450195312 86.5302734375 308.8203125 34.91015625 388.290039062 67.080078125 c 0
 430.700195312 84.240234375 465.0703125 137.16015625 448.23046875 183.389648438 c 0
 434.169921875 222 417.73046875 239.389648438 417.73046875 239.389648438 c 1
 417.73046875 239.389648438 188.700195312 207.91015625 198.080078125 274.709960938 c 0
 203.799804688 315.349609375 295.809570312 302.040039062 345.0703125 306.280273438 c 0
 394.33984375 310.51953125 464.120117188 311.349609375 493.700195312 300.129882812 c 0
 518.51953125 290.740234375 501.08984375 251.200195312 489.3203125 239.1796875 c 1
 530.990234375 187.419921875 529.4296875 99.8896484375 489.389648438 58.83984375 c 0
 434.759765625 2.83984375 336.040039062 -35.490234375 209.299804688 20.2001953125 c 0
 109.940429688 63.8603515625 16.6796875 211.1796875 2.5498046875 301.509765625 c 0
 -16.1201171875 420.809570312 71.669921875 524.919921875 137.330078125 563.879882812 c 0
EndSplineSet
Validated: 33
EndChar

StartChar: j
Encoding: 106 106 72
Width: 368
Flags: W
LayerCount: 2
Fore
SplineSet
299.049804688 309.599609375 m 0
 349.790039062 181.530273438 427.08984375 -31.8603515625 209.900390625 -69.009765625 c 0
 44.4697265625 -97.2998046875 -28.8603515625 33.08984375 10.3603515625 60.9501953125 c 0
 39.33984375 81.5302734375 110.639648438 -9.9296875 154.879882812 -10.6103515625 c 0
 199.120117188 -11.2998046875 260.099609375 3.2900390625 275.76953125 56.8203125 c 0
 295.4296875 123.969726562 265.530273438 218.51953125 227 324.879882812 c 0
 195.110351562 412.889648438 112.830078125 609.129882812 179.700195312 613.98046875 c 1
 237.66015625 616.059570312 248.299804688 437.669921875 299.049804688 309.599609375 c 0
EndSplineSet
Validated: 33
EndChar

StartChar: k
Encoding: 107 107 73
Width: 422
Flags: W
VStem: 2.66992 72.71<441.037 594.966> 62.6797 72.5107<3.3183 200.033>
LayerCount: 2
Fore
SplineSet
149.919921875 352.759765625 m 6x80
 214.080078125 406.0703125 282.740234375 517.620117188 307.299804688 566 c 4
 325.650390625 602.080078125 400.469726562 577.349609375 365.51953125 527.889648438 c 4
 330.580078125 478.440429688 222.91015625 297.580078125 139.759765625 264.169921875 c 5
 166.23046875 267.780273438 406.049804688 131.75 429.530273438 80.25 c 4
 454.799804688 24.849609375 385.669921875 15.3798828125 361.559570312 48.349609375 c 4
 331.379882812 89.599609375 135.759765625 212.41015625 120.110351562 204.25 c 5
 120.110351562 204.25 134.41015625 45.8798828125 135.190429688 35.0400390625 c 4
 139.400390625 -23.76953125 57.6103515625 -53.1396484375 62.6796875 3.169921875 c 4x40
 70.0302734375 84.8798828125 28.3701171875 463.9296875 2.669921875 553.080078125 c 4
 -9.4697265625 595.209960938 22.6904296875 612.040039062 40.330078125 605.709960938 c 4
 57.9599609375 599.379882812 70.2001953125 569.759765625 75.3798828125 523.610351562 c 4
 78.2900390625 497.690429688 102.059570312 313.91015625 102.059570312 313.91015625 c 5
 149.919921875 352.759765625 l 6x80
EndSplineSet
Validated: 33
EndChar

StartChar: l
Encoding: 108 108 74
Width: 453
Flags: W
HStem: 22.7998 71.7002<144.305 391.791>
LayerCount: 2
Fore
SplineSet
19.1904296875 600.0703125 m 4
 86.0400390625 630.219726562 62.5 511.33984375 97.2900390625 344.990234375 c 4
 124.240234375 216.129882812 139.5703125 92.900390625 157.469726562 94.5 c 5
 205.740234375 80.1201171875 455.01953125 134.299804688 459.5703125 56.25 c 4
 464.0703125 -20.8203125 259.150390625 30.25 201.139648438 22.7998046875 c 4
 143.129882812 15.3603515625 142.849609375 -12.58984375 111.5 11.58984375 c 4
 66.7099609375 46.150390625 60.16015625 205.389648438 44.76953125 303.469726562 c 4
 29.3896484375 401.549804688 -28.8603515625 578.41015625 19.1904296875 600.0703125 c 4
EndSplineSet
Validated: 33
EndChar

StartChar: m
Encoding: 109 109 75
Width: 454
Flags: W
VStem: 4.41992 65.5801<101.228 424.697> 344.71 66.6602<96.1387 466.546>
LayerCount: 2
Fore
SplineSet
4.419921875 333.150390625 m 0
 9.150390625 424.809570312 -14.0595703125 611.490234375 16.08984375 618.759765625 c 0
 46.23046875 626.040039062 80.5595703125 600.0703125 148.139648438 460.860351562 c 0
 178.3203125 398.709960938 209.799804688 305.740234375 209.799804688 305.740234375 c 1
 257.759765625 497.98046875 l 1
 257.759765625 497.98046875 285.400390625 639.309570312 335.259765625 643.91015625 c 0
 395.91015625 649.5 395.120117188 394.200195312 411.370117188 264.509765625 c 0
 436.809570312 61.419921875 453.389648438 2.9501953125 404.98046875 9.48046875 c 0
 355.0703125 16.2197265625 353.4296875 159.209960938 344.709960938 233.33984375 c 0
 334.8203125 317.440429688 329.0703125 504.48046875 329.0703125 504.48046875 c 1
 329.0703125 504.48046875 276.120117188 177.75 216.440429688 190.740234375 c 0
 175.559570312 199.639648438 109.299804688 371.610351562 69.3896484375 478.830078125 c 0
 60.669921875 502.240234375 72.5703125 339.26953125 70 252.459960938 c 0
 68.3896484375 198.169921875 97.4501953125 32.830078125 56.8896484375 27.6396484375 c 0
 -12.6904296875 18.740234375 -1.33984375 221.290039062 4.419921875 333.150390625 c 0
EndSplineSet
Validated: 33
EndChar

StartChar: n
Encoding: 110 110 76
Width: 456
Flags: W
LayerCount: 2
Fore
SplineSet
318.360351562 638.900390625 m 0
 423.41015625 644.8203125 389.76953125 392.1796875 397.919921875 279.16015625 c 0
 405.620117188 172.469726562 441.049804688 26.01953125 413.940429688 8.4404296875 c 0
 352.98046875 -31.1103515625 249.674804688 217.446289062 195.030273438 302.0703125 c 0
 146 378 92.33984375 504.790039062 71.330078125 522.16015625 c 5
 56.990234375 273.849609375 165.030273438 -1.650390625 94.7001953125 11.1796875 c 0
 38.33984375 21.490234375 10.8701171875 213.26953125 8.83984375 286.190429688 c 0
 5.91015625 391.530273438 -18.9404296875 641.6796875 30.419921875 649.169921875 c 0
 100.990234375 659.870117188 329.4296875 228.209960938 344.370117188 169.509765625 c 1
 308.1796875 311.6796875 337.650390625 385.440429688 328.759765625 481.509765625 c 0
 321.900390625 555.559570312 278.3203125 636.639648438 318.360351562 638.900390625 c 0
EndSplineSet
Validated: 33
EndChar

StartChar: o
Encoding: 111 111 77
Width: 468
Flags: W
LayerCount: 2
Fore
SplineSet
46.7265625 548.580078125 m 5
 86.3564453125 618.51953125 217.099609375 610.3203125 284.75 564.51953125 c 4
 352.389648438 518.73046875 433.91015625 362.610351562 452.599609375 258.8203125 c 4
 467.799804688 174.459960938 407.639648438 76.33984375 358.240234375 41.5400390625 c 4
 337.66015625 27.4599609375 205.370117188 -12.4599609375 101.470703125 99.4404296875 c 4
 4.31640625 204.080078125 -40.7197265625 437.219726562 46.7265625 548.580078125 c 5
85.8037109375 478.639648438 m 4
 63.1171875 433.919921875 54.8349609375 296.450195312 83.7939453125 234.389648438 c 4
 112.752929688 172.3203125 201.610351562 89.759765625 255.559570312 95.259765625 c 4
 309.509765625 100.76953125 395.139648438 135.469726562 378.790039062 238.709960938 c 5
 375.150390625 314.120117188 352.190429688 439.690429688 233.919921875 513.700195312 c 4
 188.950195312 539.259765625 108.491210938 523.360351562 85.8037109375 478.639648438 c 4
EndSplineSet
Validated: 33
EndChar

StartChar: p
Encoding: 112 112 78
Width: 355
Flags: W
HStem: -4.45139 21G<55.4902 82.7078> 266 71.0366<98.0567 174.894> 562.616 68.3477<70.2107 218.841>
VStem: 0.0990901 65.5765<395.506 558.593> 282.91 56.3171<403.287 510.776>
LayerCount: 2
Fore
SplineSet
25 616 m 0
 39.7795138952 626.076941292 65.6161223338 630.963817799 96.1807699891 630.963817799 c 0
 156.609947054 630.963817799 235.520557144 611.861505674 284 576 c 0
 323.328629483 547.562375605 339.227334656 495.328734332 339.227334656 449.423952729 c 0
 339.227334656 419.460064524 332.453380692 392.192710634 321 376 c 0
 287 329 154 271 98 266 c 1
 98 213.163398693 115.740698022 128.620017942 115.740698022 68.0269495811 c 0
 115.740698022 29.9951300782 108.751633987 1.39869281046 86 -4 c 0
 84.6496193369 -4.30267152794 83.3415202371 -4.45139479974 82.0741377295 -4.45139479974 c 0
 28.9063617281 -4.45139479974 47.3946569441 257.282821957 22 395 c 0
 11.7039228604 453.344437125 0.0990901100458 507.108229612 0.0990901100458 548.243778918 c 0
 0.0990901100458 579.022986802 6.59618427802 602.732132852 25 616 c 0
73 558 m 1
 67.7327591854 552.493339148 65.6755478021 541.4837707 65.6755478021 526.86521002 c 0
 65.6755478021 480.425553261 86.4365202222 397.564657149 91 339 c 0
 91.4698769068 337.707838506 94.7823517739 337.036632877 100.224202149 337.036632877 c 0
 138.605297712 337.036632877 282.910252595 370.425149986 282.910252595 454.831941566 c 0
 282.910252595 460.336055151 282.296630154 466.057111793 281 472 c 0
 273.418934433 520.855755878 210.493926883 562.616134579 123.901616673 562.616134579 c 0
 107.694289422 562.616134579 90.6578507179 561.153187628 73 558 c 1
EndSplineSet
Validated: 1
EndChar

StartChar: q
Encoding: 113 113 79
Width: 526
Flags: W
LayerCount: 2
Fore
SplineSet
89.0595703125 472.349609375 m 0
 57.099609375 428.379882812 42.1904296875 347 89.51953125 265.990234375 c 0
 193.469320866 88.0821957352 362.051426173 65.8488978018 390.780273438 91.419921875 c 1
 370.66015625 126.150390625 l 1
 341.969726562 171.009765625 307.259765625 217.309570312 282.389648438 240.059570312 c 0
 254.58984375 265.549804688 311.280273438 299.459960938 357 263.950195312 c 0
 368.4296875 255.0703125 383.200195312 237.009765625 398.959960938 214.1796875 c 1
 437.400390625 151.26953125 l 1
 443.98046875 165.25 l 1
 464.162543854 237.964890955 429.54941098 446.000797996 272.450195312 529.780273438 c 0
 211.749184 562.116258958 127.563164425 525.309698367 89.0595703125 472.349609375 c 0
306.91015625 587.809570312 m 0
 403.709960938 526.150390625 518.610351562 391.080078125 508.360351562 221.849609375 c 0
 505.450195312 173.759765625 499.3203125 132.48046875 486.58984375 98.8701171875 c 1
 475.280273438 78.2197265625 l 1
 486.58984375 55.3095703125 l 1
 496.900390625 31.080078125 503.509765625 10.919921875 504.059570312 -0.75 c 0
 506.25 -47.4404296875 410.280273438 -22.990234375 422.849609375 20.8203125 c 1
 422.809570312 21.009765625 l 1
 412.450195312 17.740234375 l 1
 372.790039062 10.76953125 273.549804688 23.580078125 187.610351562 70.2802734375 c 0
 95.8095703125 120.169921875 -67.0302734375 307.879882812 29.66015625 504.860351562 c 0
 70.4886984007 587.981185285 234.669411642 633.815727114 306.91015625 587.809570312 c 0
EndSplineSet
Validated: 33
EndChar

StartChar: r
Encoding: 114 114 80
Width: 426
Flags: W
LayerCount: 2
Fore
SplineSet
6.3603515625 374.299804688 m 0
 -7.0498046875 492.120117188 1.75 590.309570312 23.419921875 608.309570312 c 0
 91.9501953125 665.309570312 202.73046875 652.219726562 273.299804688 594.400390625 c 0
 379.48046875 507.259765625 340.200195312 398.299804688 318.669921875 344.030273438 c 0
 293.0703125 279.530273438 192.849609375 236.5703125 192.849609375 236.5703125 c 1
 192.849609375 236.5703125 461.8203125 63.25 435.139648438 -1.1103515625 c 1
 397.080078125 -52.66015625 159.400390625 201.389648438 89.1103515625 222.120117188 c 0
 61.75 231.389648438 152.219726562 21.25 90.1904296875 -1.25 c 0
 46.7099609375 -16.9296875 20.0302734375 253.349609375 6.3603515625 374.299804688 c 0
64.58984375 559.080078125 m 1
 51.8603515625 532.209960938 61.33984375 346.620117188 78.8095703125 301.349609375 c 1
 180.25 247.620117188 289.009765625 366.530273438 283.990234375 457.080078125 c 0
 277.900390625 551.990234375 105.219726562 609.809570312 64.58984375 559.080078125 c 1
EndSplineSet
Validated: 33
EndChar

StartChar: u
Encoding: 117 117 81
Width: 414
Flags: W
VStem: 20.0801 66.2002<216.076 501.972>
LayerCount: 2
Fore
SplineSet
33.490234375 581.870117188 m 0
 107.16015625 582.809570312 40.4296875 470.629882812 86.2802734375 273.58984375 c 0
 110.200195312 170.809570312 181.360351562 63.1103515625 257.440429688 74.76953125 c 0
 417.321498494 99.2960526967 251.010475982 598.975329788 331.599609375 623.309570312 c 0
 390.58984375 641.120117188 389.629882812 373.509765625 394.190429688 263.450195312 c 0
 398.740234375 153.400390625 400.8203125 20.650390625 269.0703125 16.5400390625 c 0
 184.169921875 13.8896484375 144.549804688 49.1103515625 103.049804688 97.259765625 c 0
 61.5595703125 145.419921875 31.669921875 224.700195312 20.080078125 305.459960938 c 0
 8.48046875 386.23046875 -22.8203125 581.16015625 33.490234375 581.870117188 c 0
EndSplineSet
Validated: 33
EndChar

StartChar: v
Encoding: 118 118 82
Width: 407
Flags: W
LayerCount: 2
Fore
SplineSet
369.114257812 596.190429688 m 1
 395.359375 563.1796875 362.689453125 265.330078125 347.7109375 148.25 c 0
 334.247070312 54.080078125 361.91015625 21.6796875 301.126953125 5.5302734375 c 0
 254.466796875 -6.8896484375 167.438476562 203.559570312 119.635742188 307.099609375 c 0
 71.8447265625 410.629882812 -37.8388671875 588.129882812 13.2685546875 626.780273438 c 0
 52.4287109375 656.400390625 117.142578125 475.040039062 171.75390625 356.400390625 c 0
 200.91015625 293.049804688 239.905273438 213.299804688 271.30078125 153.139648438 c 1
 305.948242188 198.240234375 280.811523438 689.009765625 369.114257812 596.190429688 c 1
EndSplineSet
Validated: 33
EndChar

StartChar: w
Encoding: 119 119 83
Width: 561
Flags: W
HStem: 645.87 20G<458.58 485.98>
VStem: 437.58 77.1895<197.726 581.409>
LayerCount: 2
Fore
SplineSet
458.719726562 665.870117188 m 1
 513.240234375 655.580078125 505.1796875 449.219726562 514.76953125 337.900390625 c 0
 524.370117188 226.450195312 556.360351562 7.5703125 516.440429688 -2.58984375 c 0
 464.559570312 -15.669921875 471.66015625 25.240234375 420.889648438 101.219726562 c 0
 382.219726562 160.629882812 307.389648438 278.209960938 258.009765625 367.8203125 c 1
 190.690429688 195 213.5 19.8095703125 136.450195312 13.6904296875 c 0
 80.669921875 9.240234375 47.009765625 353.490234375 0 530.620117188 c 1
 1.5302734375 570.98046875 22.8095703125 586.559570312 36.4404296875 582.940429688 c 0
 50.2099609375 579.3203125 70.099609375 555.389648438 82.33984375 508.639648438 c 0
 94.580078125 462.01953125 94.0302734375 393.290039062 109.599609375 302.98046875 c 0
 112.940429688 272.08984375 128.379882812 199.73046875 131.719726562 168.700195312 c 1
 151.190429688 294.629882812 l 1
 172.889648438 379.23046875 190 413.3203125 207.110351562 441.4296875 c 0
 214.900390625 454.790039062 234.919921875 489.709960938 281.940429688 436.280273438 c 0
 320.330078125 392.58984375 422.969726562 254.280273438 460.809570312 171.0703125 c 1
 457.889648438 237.440429688 447.1796875 289.620117188 437.580078125 357.389648438 c 0
 426.58984375 435.450195312 409.0703125 675.059570312 458.580078125 665.740234375 c 1
 458.719726562 665.870117188 l 1
EndSplineSet
Validated: 33
EndChar

StartChar: x
Encoding: 120 120 84
Width: 427
Flags: W
LayerCount: 2
Fore
SplineSet
267.030273438 548.91015625 m 0
 300.312210078 639.595262535 328.793583474 656.223450751 369.48046875 622.259765625 c 0
 396.280273438 599.879882812 310 476.330078125 295.5703125 434.9296875 c 0
 288.9296875 415.870117188 279.049804688 389.5 267.5703125 359.459960938 c 2
 240.259765625 288.620117188 l 1
 313.849609375 174.83984375 l 1
 343.099609375 133.169921875 370.370117188 98.6796875 392.219726562 78.2001953125 c 0
 441.139648438 32.3095703125 425.940429688 -54.009765625 356.400390625 20.5703125 c 0
 330.3203125 48.5400390625 280.5703125 118.120117188 226.580078125 199.120117188 c 2
 213.559570312 219.040039062 l 1
 192.73046875 164.5703125 l 2
 181.440429688 134.51953125 171.849609375 108.120117188 165.599609375 89.01953125 c 1
 171.940429688 59.6904296875 163.030273438 9.830078125 150.66015625 8.0302734375 c 0
 138.290039062 6.2197265625 53.7001953125 -14.58984375 91.400390625 78.169921875 c 0
 100.8203125 101.360351562 114.4296875 136.709960938 130.059570312 178.110351562 c 2
 170.150390625 285.580078125 l 1
 118.719726562 367.370117188 l 2
 67.73046875 450.139648438 25.4697265625 524.1796875 11.3896484375 559.259765625 c 0
 -26.16015625 652.809570312 43.5302734375 658.780273438 89.080078125 558.389648438 c 0
 99.51953125 535.360351562 118.23046875 498.959960938 141.780273438 456.01953125 c 1
 197.5 359.540039062 l 1
 230.849609375 450.150390625 l 2
 245.9296875 491.290039062 258.709960938 526.240234375 267.030273438 548.91015625 c 0
EndSplineSet
Validated: 33
EndChar

StartChar: y
Encoding: 121 121 85
Width: 398
Flags: W
VStem: 227.81 67.3408<22.0982 268.284>
LayerCount: 2
Fore
SplineSet
2.9599609375 626.120117188 m 4
 59.6796875 690.049804688 192.9296875 371.629882812 237.290039062 346.440429688 c 5
 263.790039062 485.799804688 l 5
 273.76953125 546.360351562 297.809570312 699.400390625 354.040039062 662.26953125 c 4
 395.330078125 635 333.549804688 555.8203125 316.08984375 458.139648438 c 4
 303.990234375 390.450195312 297.559570312 309.5703125 295.150390625 254.559570312 c 4
 292.75 199.549804688 297.099609375 173.030273438 301.700195312 128.0703125 c 4
 305.639648438 84.48046875 341.080078125 -1.73046875 278.259765625 0.0302734375 c 4
 206.469726562 1.150390625 241.48046875 206.099609375 227.809570312 231.200195312 c 4
 203.33984375 276.099609375 149.049804688 358.450195312 98.650390625 427.129882812 c 5
 57.7001953125 496.219726562 -15.6201171875 605.169921875 2.9599609375 626.120117188 c 4
EndSplineSet
Validated: 33
EndChar

StartChar: z
Encoding: 122 122 86
Width: 434
Flags: W
HStem: 545.5 70.1396<19.4129 273.9>
LayerCount: 2
Fore
SplineSet
361.969726562 634.959960938 m 1
 399.419921875 636.280273438 416.200195312 605.049804688 408.129882812 582.719726562 c 1
 407.51953125 581.76953125 l 1
 406.790039062 576.549804688 l 1
 388.150390625 525.599609375 278.23046875 385.83984375 252.66015625 322 c 0
 206.41015625 206.48046875 128.849609375 95.0595703125 128.849609375 95.0595703125 c 1
 128.849609375 95.0595703125 412.049804688 113.860351562 421.669921875 51.9501953125 c 0
 430.16015625 -2.669921875 274.16015625 27.240234375 218.58984375 26.599609375 c 0
 163.01953125 25.9599609375 61.1201171875 -0.4404296875 51.25 56.849609375 c 0
 41.3896484375 114.129882812 157.139648438 269.719726562 193.799804688 357.549804688 c 0
 226.25 435.33984375 294.25 522.959960938 331.509765625 563.879882812 c 1
 331.509765625 563.879882812 96.5400390625 538.759765625 42.7099609375 545.5 c 0
 -24.76953125 553.9296875 -1.6796875 619.700195312 39.25 615.639648438 c 0
 94.7197265625 610.139648438 267.780273438 628.23046875 361.969726562 634.959960938 c 1
EndSplineSet
Validated: 33
EndChar

StartChar: grave
Encoding: 96 96 87
Width: 82
Flags: W
HStem: 644.71 143.94
VStem: 21.6299 57.4902<648.4 786.913>
LayerCount: 2
Fore
SplineSet
51.51953125 788.650390625 m 0
 82.9697265625 791 80.25 736.330078125 79.1201171875 712.33984375 c 0
 77.83984375 685.280273438 91.8603515625 639.129882812 54.650390625 644.709960938 c 0
 20.0498046875 649.91015625 16.2001953125 692.259765625 21.6298828125 721.530273438 c 0
 26.009765625 745.129882812 14.1796875 785.870117188 51.51953125 788.650390625 c 0
EndSplineSet
Validated: 33
EndChar

StartChar: question
Encoding: 63 63 88
Width: 464
Flags: W
VStem: 113.051 62.4014<169.137 336.389>
LayerCount: 2
Fore
SplineSet
205.490234375 8.330078125 m 0
 161.809570312 -71.2802734375 91.0498046875 23.8798828125 135.879882812 45.08984375 c 0
 180.709960938 66.2998046875 221.580078125 37.66015625 205.490234375 8.330078125 c 0
58.9375 603.688476562 m 0
 244.540334594 683.751304188 358.198721658 631.02512439 392.034179688 579.771484375 c 0
 422.948242188 532.9375 417.03515625 396.795898438 341.620117188 358.491210938 c 0
 292.18359375 333.368164062 226.786132812 338.24609375 193.807617188 337.59765625 c 1
 172.349609375 338.491210938 l 2
 161.435369487 339.091404817 174.581819651 299.097251358 175.452148438 272.106445312 c 0
 176.62890625 226.23828125 201.534179688 168.325195312 130.930664062 164.333984375 c 0
 85.68359375 163.07421875 113.625 241.91796875 113.05078125 276.736328125 c 0
 112.475585938 311.552734375 74.5498046875 392.592773438 123.590820312 398.768554688 c 2
 123.590820312 398.768554688 282.323242188 389.606445312 312.115234375 422.159179688 c 0
 352.40625 466.024414062 348.685546875 521.958984375 332.634765625 544.982421875 c 0
 316.583007812 568.006835938 274.053710938 590.567382812 222.983398438 585.743164062 c 0
 99.234375 573.918945312 66.1103515625 498.307617188 33.3193359375 511.00390625 c 0
 -8.8798828125 527.259765625 19.349609375 586.6484375 58.9375 603.688476562 c 0
EndSplineSet
Validated: 33
EndChar

StartChar: cent
Encoding: 162 162 89
Width: 456
Flags: W
HStem: 104.71 63.6602<300.903 417.247> 547.43 57.6699<205.713 345.034>
VStem: 129.085 54.1123<598.489 694.868>
LayerCount: 2
Fore
SplineSet
126.821289062 488.709960938 m 5
 81.4296875 442.919921875 40.9921875 392.919921875 65.53125 311.83984375 c 4
 91.255859375 226.83984375 132.186523438 197.8203125 166.447265625 186.219726562 c 4
 181.1328125 181.259765625 215.327148438 170.3203125 215.327148438 170.3203125 c 5
 212.836914062 180.08984375 l 6
 194.1015625 254.200195312 169.389648438 380.849609375 151.814453125 458.41015625 c 6
 141.8671875 503.0703125 l 6
 141.853515625 503.0703125 126.821289062 488.709960938 126.821289062 488.709960938 c 5
183.197265625 632.879882812 m 4
 183.73046875 624.950195312 187.698242188 598.469726562 187.698242188 598.469726562 c 5
 205.712890625 605.099609375 l 6
 259.653320312 624.299804688 358.9296875 607.349609375 350.767578125 562.030273438 c 4
 342.526367188 516.3203125 299.651367188 552.759765625 252.435546875 547.4296875 c 4
 227.58984375 544.620117188 201.080078125 533.370117188 201.080078125 533.370117188 c 5
 218.143116095 427.964647848 219.038065638 422.436172974 274.751953125 193.639648438 c 5
 283.166992188 166.83984375 l 5
 302.88671875 168.370117188 l 5
 353.032226562 175.51953125 408.67578125 190.990234375 421.590820312 166.1796875 c 4
 441.936523438 127.080078125 402.577148438 108.129882812 342.153320312 104.709960938 c 5
 300.903320312 103.290039062 l 5
 300.903320312 103.290039062 316.015625 60.8798828125 320.743164062 48.5595703125 c 4
 361.993164062 -58.900390625 282.141601562 -69.4296875 251.303710938 34.580078125 c 4
 247.443359375 47.58984375 230.985351562 108.190429688 230.985351562 108.190429688 c 5
 177.097573312 118.735411871 50.3177629283 154.407831246 16.251953125 260.290039062 c 4
 -26.3427734375 392.669921875 23.6953125 459.120117188 64.29296875 510.650390625 c 4
 64.8207392716 511.320256349 92.5550517824 545.539581971 129.084960938 566.099609375 c 5
 112.779486375 633.916401071 93.1194663551 715.685225233 136.766601562 710.790039062 c 4
 162.319335938 707.9296875 180.521484375 672.879882812 183.197265625 632.879882812 c 4
EndSplineSet
Validated: 33
EndChar

StartChar: equal
Encoding: 61 61 90
Width: 520
Flags: W
HStem: 175.75 56.1201<98.351 390.844> 336.1 61.7705<73.2507 312.838> 343.11 66.0195<159.33 409.428>
LayerCount: 2
Fore
SplineSet
88.4501953125 397.870117188 m 0xc0
 137.490234375 411.379882812 339.370117188 412.669921875 389.900390625 409.129882812 c 0
 440.440429688 405.58984375 433.490234375 331.98046875 381.440429688 343.110351562 c 0xa0
 285.919921875 363.530273438 157.889648438 355.049804688 95.650390625 336.099609375 c 0
 60.8095703125 325.530273438 39.41015625 384.370117188 88.4501953125 397.870117188 c 0xc0
96.8701171875 201.759765625 m 0
 88.98046875 239.889648438 201.16015625 234.26953125 250.379882812 231.870117188 c 0
 305.900390625 229.169921875 399.009765625 244.16015625 391.240234375 199.400390625 c 0
 384.009765625 157.790039062 297.6796875 167.940429688 237.240234375 175.75 c 0
 188.490234375 182.059570312 106.240234375 156.5 96.8701171875 201.759765625 c 0
EndSplineSet
Validated: 33
EndChar

StartChar: divide
Encoding: 247 247 91
Width: 542
Flags: W
HStem: 82.04 109.04<219.807 284.502> 240.5 69.0195<93.5831 416.142>
LayerCount: 2
Fore
SplineSet
79 281.3203125 m 0
 69.2900390625 319.58984375 200.540039062 312.540039062 258.120117188 309.51953125 c 0
 323.0703125 306.110351562 431.75 319.9296875 423.23046875 275.23046875 c 0
 415.309570312 233.66015625 314.400390625 231.900390625 243.629882812 240.5 c 0
 186.549804688 247.4296875 90.5302734375 235.900390625 79 281.3203125 c 0
267.370117188 82.0400390625 m 0
 246.780273438 76.6396484375 217.549804688 96.48046875 204.66015625 115.150390625 c 0
 189.120117188 137.650390625 225.51953125 185.690429688 248.419921875 191.080078125 c 0
 264.700195312 194.919921875 294.650390625 163.120117188 300.490234375 144.75 c 0
 306.0703125 127.169921875 287.969726562 87.4296875 267.370117188 82.0400390625 c 0
252.950195312 366.73046875 m 0
 145.830078125 407.450195312 252.440429688 512.48046875 286.76953125 460.150390625 c 0
 321.099609375 407.809570312 292.419921875 351.719726562 252.950195312 366.73046875 c 0
EndSplineSet
Validated: 33
EndChar

StartChar: periodcentered
Encoding: 183 183 92
Width: 158
Flags: W
LayerCount: 2
Fore
SplineSet
70.58984375 56.7001953125 m 0
 -36.5302734375 97.4296875 70.080078125 202.459960938 104.41015625 150.120117188 c 0
 138.73046875 97.7802734375 110.049804688 41.7001953125 70.58984375 56.7001953125 c 0
EndSplineSet
Validated: 33
EndChar

StartChar: cedilla
Encoding: 184 184 93
Width: 178
Flags: W
LayerCount: 2
Fore
SplineSet
17.2001953125 -123.139648438 m 0
 -21 -106.860351562 15.23046875 -44.5703125 31.0595703125 -17.2001953125 c 0
 48.91015625 13.669921875 60.41015625 76.1201171875 100.549804688 47.099609375 c 0
 137.879882812 20.1103515625 116.780273438 -31.759765625 92.740234375 -62.7001953125 c 0
 73.349609375 -87.650390625 62.5498046875 -142.459960938 17.2001953125 -123.139648438 c 0
EndSplineSet
Validated: 33
EndChar

StartChar: uni00AD
Encoding: 173 173 94
Width: 439
Flags: W
HStem: 11.0801 71.1797<149.058 400.78>
LayerCount: 2
Fore
SplineSet
385.620117188 11.080078125 m 4
 330.540039062 -3.0703125 100.259765625 -5.8896484375 42.3603515625 -2.650390625 c 4
 -15.5400390625 0.580078125 -12.9296875 83.9599609375 47.1796875 72.98046875 c 4
 157.509765625 52.849609375 303.059570312 62.4599609375 372.83984375 82.259765625 c 4
 411.91015625 93.3203125 440.700195312 25.240234375 385.620117188 11.080078125 c 4
EndSplineSet
Validated: 33
EndChar

StartChar: macron
Encoding: 175 175 95
Width: 439
Flags: W
HStem: 641.08 71.1797<149.058 400.78>
LayerCount: 2
Fore
SplineSet
385.620117188 641.080078125 m 4
 330.540039062 626.9296875 100.259765625 624.110351562 42.3603515625 627.349609375 c 4
 -15.5400390625 630.580078125 -12.9296875 713.959960938 47.1796875 702.98046875 c 4
 157.509765625 682.849609375 303.059570312 692.459960938 372.83984375 712.259765625 c 4
 411.91015625 723.3203125 440.700195312 655.240234375 385.620117188 641.080078125 c 4
EndSplineSet
Validated: 33
EndChar

StartChar: acute
Encoding: 180 180 96
Width: 98
Flags: W
HStem: 644.71 143.94
VStem: 7.62988 57.4902<648.4 786.913>
LayerCount: 2
Fore
SplineSet
37.51953125 788.650390625 m 0
 68.9697265625 791 66.25 736.330078125 65.1201171875 712.33984375 c 0
 63.83984375 685.280273438 77.8603515625 639.129882812 40.650390625 644.709960938 c 0
 6.0498046875 649.91015625 2.2001953125 692.259765625 7.6298828125 721.530273438 c 0
 12.009765625 745.129882812 0.1796875 785.870117188 37.51953125 788.650390625 c 0
EndSplineSet
Validated: 33
EndChar

StartChar: multiply
Encoding: 215 215 97
Width: 475
Flags: W
HStem: 359.32 57.5098<308.917 347.091>
LayerCount: 2
Fore
SplineSet
340.23046875 359.3203125 m 4
 320.830078125 344.580078125 299.8203125 331.549804688 277.059570312 318.139648438 c 5
 240.73046875 291.759765625 l 5
 242.41015625 289.8203125 l 6
 273.400390625 254.8203125 379.599609375 183.469726562 330.639648438 152.650390625 c 4
 298.650390625 132.51953125 252.83984375 200.0703125 203.950195312 246.740234375 c 5
 197.1796875 255.66015625 l 5
 165.201792991 230.744308207 142.300406801 200.569773567 120.0703125 186.879882812 c 4
 98.1103515625 173.379882812 43.4296875 192.299804688 76.2197265625 231.059570312 c 4
 86.48046875 243.1796875 109.6796875 262.709960938 138.099609375 284.629882812 c 6
 153.25 296.16015625 l 5
 114.037628618 341.854789568 78.7405996699 382.986828721 97.6904296875 411.6796875 c 4
 111.549804688 432.66015625 150.309570312 390.610351562 185.620117188 353.360351562 c 5
 204.759765625 332.25 l 5
 225.799804688 347.169921875 l 6
 263.01953125 373.129882812 296.51953125 401.9296875 312.879882812 411.5 c 4
 318.33984375 414.700195312 323.73046875 416.379882812 328.91015625 416.830078125 c 4
 365.16015625 420.030273438 372.58984375 383.9296875 340.23046875 359.3203125 c 4
EndSplineSet
Validated: 33
EndChar

StartChar: o_o
Encoding: 256 57344 98
Width: 922
Flags: W
LayerCount: 2
Fore
SplineSet
836.75 64.75 m 5
 789.490234375 -0.26953125 670.440429688 21.490234375 608.391601562 74.6201171875 c 4
 546.342773438 127.75 474.329101562 274.299804688 467.455078125 379.540039062 c 4
 461.8671875 465.08984375 531.712890625 562.809570312 584.712890625 591.8203125 c 4
 606.751953125 603.490234375 740.690429688 625.23046875 831.309570312 502.330078125 c 4
 916.040039062 387.400390625 936.190429688 165.559570312 836.75 64.75 c 5
806.330078125 134.240234375 m 4
 833.919921875 176.110351562 854.4296875 304.299804688 832.66015625 369.240234375 c 4
 810.879882812 434.1796875 732.900390625 523.240234375 678.6796875 523.849609375 c 4
 624.459960938 524.469726562 535.4609375 499.639648438 540.064453125 395.209960938 c 5
 535.176757812 319.860351562 558.986328125 201.849609375 668.150390625 114.969726562 c 4
 709.940429688 84.5 778.75 92.3603515625 806.330078125 134.240234375 c 4
47.7265625 510.580078125 m 5
 87.3564453125 580.51953125 208.099609375 572.3203125 275.75 526.51953125 c 4
 343.389648438 480.73046875 434.91015625 339.610351562 453.599609375 235.8203125 c 4
 468.799804688 151.459960938 408.639648438 53.33984375 359.240234375 18.5400390625 c 4
 338.66015625 4.4599609375 206.370117188 -35.4599609375 102.470703125 76.4404296875 c 4
 5.31640625 181.080078125 -39.7197265625 399.219726562 47.7265625 510.580078125 c 5
82.8037109375 440.639648438 m 4
 60.1171875 395.919921875 60.8349609375 273.450195312 89.7939453125 211.389648438 c 4
 118.752929688 149.3203125 202.610351562 66.759765625 256.559570312 72.259765625 c 4
 310.509765625 77.76953125 396.139648438 112.469726562 379.790039062 215.709960938 c 5
 376.150390625 291.120117188 339.190429688 401.690429688 220.919921875 475.700195312 c 4
 175.950195312 501.259765625 105.491210938 485.360351562 82.8037109375 440.639648438 c 4
EndSplineSet
Validated: 33
Ligature2: "'liga' Standard Ligatures in Latin lookup 0-1" o o
LCarets2: 1 458
EndChar

StartChar: t_t
Encoding: 255 57345 99
Width: 866
Flags: W
VStem: 559.77 41.4307<158.854 453.146>
LayerCount: 2
Fore
SplineSet
153.650390625 610.809570312 m 4
 324.998046875 634.563476562 403.289208094 628.55871547 439.049804688 588.379882812 c 1
 692.282035937 598.736346096 694.168218457 598.813485486 735.809570312 596.290039062 c 0
 803.799804688 592.1796875 833.879882812 575.66015625 829.599609375 540.23046875 c 0
 821.049804688 487.4296875 687.700195312 542 614.690429688 521.08984375 c 1
 615.83984375 442.379882812 617.969726562 334.76953125 601.200195312 246.040039062 c 0
 584.4296875 157.309570312 642.580078125 -6.0302734375 588.799804688 -1.919921875 c 0
 496.5703125 5.1103515625 553.620117188 236.139648438 559.76953125 324.580078125 c 0
 565.809570312 411.48046875 565.030273438 471.849609375 551.01953125 519.360351562 c 1
 516.76953125 526.280273438 436.959960938 514.330078125 413.889648438 547.48046875 c 1
 412.599609375 549.98046875 l 1
 400.91015625 554.3203125 l 1
 343.919921875 552.690429688 261.98046875 566.639648438 222.040039062 544.120117188 c 5
 228.900390625 465.709960938 237.620117188 367.16015625 245.799804688 278.669921875 c 4
 253.990234375 190.190429688 311.23046875 25.990234375 271.16015625 13.2197265625 c 4
 219.620117188 -3.2001953125 192.440429688 200.23046875 184.009765625 285.030273438 c 4
 175.580078125 369.830078125 176.080078125 491.400390625 158.650390625 537.759765625 c 5
 119.040039062 542.790039062 9.5703125 501.690429688 0.2001953125 555.25 c 4
 -4.990234375 603.809570312 92.3701171875 602.3203125 153.650390625 610.809570312 c 4
EndSplineSet
Validated: 33
Ligature2: "'liga' Standard Ligatures in Latin lookup 0-1" t t
LCarets2: 1 433
EndChar

StartChar: e_e
Encoding: 254 57346 100
Width: 788
LayerCount: 2
Fore
SplineSet
329.549804688 612.750976562 m 4
 353.009765625 634.658203125 384.280273438 616.1484375 434.900390625 631.52734375 c 4
 498.809570312 650.944335938 680.759765625 660.404296875 683.209960938 618.248046875 c 4
 686.540039062 560.931640625 457.969726562 594.85546875 397.26953125 561.116210938 c 5
 388.75 527.215820312 426.870117188 422.981445312 428.879882812 354.658203125 c 5
 470.759765625 317.681640625 675.940429688 383.349609375 684.709960938 328.057617188 c 4
 694.889648438 263.921875 434.150390625 295.364257812 440.919921875 264.66796875 c 4
 449.190429688 219.087890625 473 152.360351562 477.009765625 114.119140625 c 5
 524.66015625 75.8779296875 766.700195312 159.23046875 781 90.30078125 c 5
 780.25 43.7001953125 452.950195312 12.56640625 436.400390625 48.8779296875 c 5
 412.98046875 51.642578125 394.599609375 194.37890625 374.700195312 314.12890625 c 4
 355.26953125 431.068359375 302.51953125 585.807617188 329.549804688 612.750976562 c 4
331.51953125 608.98046875 m 0
 345.860351562 540.41015625 72.6201171875 578.469726562 76.919921875 551.1796875 c 0
 83.7900390625 507.610351562 99.8798828125 387.389648438 103.639648438 345.0703125 c 0
 104.33984375 337.139648438 112.75 328.559570312 120.900390625 330.950195312 c 0
 166.849609375 344.4296875 299.110351562 371.830078125 300.120117188 310.650390625 c 0
 300.860351562 264.76953125 100.759765625 278.23046875 108.200195312 247.8203125 c 0
 116.669921875 205.650390625 119.0703125 128.240234375 122.940429688 87.6103515625 c 0
 127.586914062 39.1416015625 340.248046875 145.990234375 363.610351562 92.4599609375 c 0
 372.629882812 71.7998046875 368.4296875 43.3896484375 344.690429688 40.5703125 c 0
 268.040039062 31.4599609375 109.629882812 -24.5400390625 79.2802734375 17.419921875 c 0
 57.9248046875 46.384765625 45.9736328125 146.483398438 41.1396484375 316.669921875 c 0
 39.2001953125 384.860351562 32.5498046875 470.860351562 1.1298828125 582.58984375 c 0
 -3.7998046875 600.120117188 7.8798828125 616.290039062 27.16015625 618.559570312 c 0
 44.7197265625 620.629882812 66.4501953125 622.41015625 88.0703125 622.120117188 c 0
 137.309570312 621.509765625 320.120117188 663.530273438 331.51953125 608.98046875 c 0
EndSplineSet
Validated: 37
Ligature2: "'liga' Standard Ligatures in Latin lookup 0-1" e e
LCarets2: 1 413
EndChar

StartChar: a_a
Encoding: 253 57347 101
Width: 782
Flags: W
LayerCount: 2
Fore
SplineSet
492.01171875 604.928710938 m 0
 509.306640625 650.178710938 554.66015625 657.208007812 593.110351562 595.73828125 c 0
 631.560546875 534.258789062 691.662109375 333.41796875 722.7109375 236.078125 c 0
 753.7578125 138.73828125 824.685546875 26.6484375 779.395507812 11.6982421875 c 0
 718.473632812 -13.69140625 717.0859375 107.198242188 679.133789062 157.55859375 c 1
 620.875 164.858398438 500.489257812 124.66796875 473.786132812 131.358398438 c 1
 458.822265625 100.858398438 466.189453125 47.23828125 451.225585938 16.73828125 c 1
 434.598632812 -6.1220703125 391.278320312 0.2587890625 403.125 56.388671875 c 1
 414.763671875 168.6484375 460.34765625 515.038085938 492.01171875 604.928710938 c 0
540.778320312 539.568359375 m 1
 528.5859375 507.127929688 505.870117188 316.608398438 488.689453125 221.877929688 c 1
 511.541992188 200.30859375 617.978515625 223.3984375 668.967773438 214.588867188 c 1
 635.159179688 302.188476562 556.296875 523.998046875 540.778320312 539.568359375 c 1
226.956054688 628.860351562 m 1
 270.809570312 534.590820312 367.299804688 163.353515625 403.125 56.388671875 c 0
 420.749023438 0.3271484375 373.647460938 3.525390625 355.065429688 25.123046875 c 1
 337.250976562 54.6904296875 315.03515625 171.623046875 297.219726562 201.189453125 c 1
 262.114257812 212.336914062 175.372070312 186.954101562 130.943359375 195.66796875 c 1
 89.958984375 173.830078125 83.2666015625 -16.701171875 21.6083984375 2.8671875 c 0
 -23.7958984375 13.4033203125 20.6259765625 133.353515625 64.6279296875 250.9921875 c 0
 108.629882812 368.631835938 130.534179688 528.1328125 140 622 c 0
 144.372070312 665.348632812 206.033203125 690.102539062 226.956054688 628.860351562 c 1
196.111328125 550.043945312 m 1
 182.830078125 532.534179688 172.126953125 359.580078125 130.518554688 244.3671875 c 1
 178.81640625 258.666015625 262.37890625 268.40625 278.372070312 269.344726562 c 1
 251.345703125 364.2421875 204.384765625 508.987304688 196.111328125 550.043945312 c 1
409.608398438 2.8671875 m 1024
EndSplineSet
Validated: 37
Ligature2: "'liga' Standard Ligatures in Latin lookup 0-1" a a
LCarets2: 1 408
EndChar

StartChar: quotedblright
Encoding: 252 8221 102
Width: 243
Flags: W
HStem: 478.246 217.132
VStem: 27.7578 53.6006<487.46 674.863> 138.83 59.4023<479.725 687.582>
LayerCount: 2
Fore
SplineSet
24.4892578125 677.979492188 m 0
 81.0830078125 697.202148438 75.2705078125 627.549804688 81.3583984375 593.703125 c 0
 88.9072265625 551.731445312 109.783203125 499.477539062 57.5224609375 486.485351562 c 0
 23.837890625 479.3359375 33.2626953125 555.490234375 27.7578125 587.404296875 c 0
 22.2529296875 619.3203125 -11.3486328125 665.806640625 24.4892578125 677.979492188 c 0
159.469726562 695.377929688 m 0
 199.004882812 691.311523438 191.041015625 629.805664062 198.232421875 594.221679688 c 0
 207.147460938 550.09765625 207.739257812 486.196289062 171.950195312 478.24609375 c 0
 133.463867188 469.697265625 143.141601562 539.362304688 138.830078125 580.174804688 c 0
 135.008789062 616.352539062 126.163085938 698.803710938 159.469726562 695.377929688 c 0
EndSplineSet
Validated: 33
EndChar

StartChar: quotedblleft
Encoding: 251 8220 103
Width: 230
Flags: W
HStem: 446.48 215.5
VStem: 11.3096 53.6006<471.464 658.862> 118.95 59.3994<447.959 655.813>
LayerCount: 2
Fore
SplineSet
68.1796875 661.98046875 m 4
 104.009765625 649.809570312 70.41015625 603.3203125 64.91015625 571.41015625 c 4
 59.400390625 539.490234375 68.830078125 463.33984375 35.1396484375 470.490234375 c 4
 -17.1201171875 483.48046875 3.759765625 535.73046875 11.3095703125 577.700195312 c 4
 17.400390625 611.549804688 11.580078125 681.200195312 68.1796875 661.98046875 c 4
157.709960938 663.610351562 m 4
 191.01953125 667.040039062 182.169921875 584.580078125 178.349609375 548.41015625 c 4
 174.040039062 507.58984375 183.719726562 437.9296875 145.23046875 446.48046875 c 4
 109.440429688 454.4296875 110.030273438 518.330078125 118.950195312 562.450195312 c 4
 126.139648438 598.040039062 118.1796875 659.540039062 157.709960938 663.610351562 c 4
EndSplineSet
Validated: 33
EndChar

StartChar: quoteleft
Encoding: 249 8216 104
Width: 82
Flags: W
HStem: 644.71 143.94
VStem: 21.6299 57.4902<648.4 786.913>
LayerCount: 2
Fore
SplineSet
51.51953125 788.650390625 m 0
 82.9697265625 791 80.25 736.330078125 79.1201171875 712.33984375 c 0
 77.83984375 685.280273438 91.8603515625 639.129882812 54.650390625 644.709960938 c 0
 20.0498046875 649.91015625 16.2001953125 692.259765625 21.6298828125 721.530273438 c 0
 26.009765625 745.129882812 14.1796875 785.870117188 51.51953125 788.650390625 c 0
EndSplineSet
Validated: 33
EndChar

StartChar: quoteright
Encoding: 250 8217 105
Width: 82
Flags: W
HStem: 644.71 143.94
VStem: 21.6299 57.4902<648.4 786.913>
LayerCount: 2
Fore
SplineSet
51.51953125 788.650390625 m 0
 82.9697265625 791 80.25 736.330078125 79.1201171875 712.33984375 c 0
 77.83984375 685.280273438 91.8603515625 639.129882812 54.650390625 644.709960938 c 0
 20.0498046875 649.91015625 16.2001953125 692.259765625 21.6298828125 721.530273438 c 0
 26.009765625 745.129882812 14.1796875 785.870117188 51.51953125 788.650390625 c 0
EndSplineSet
Validated: 33
EndChar

StartChar: d_d
Encoding: 246 57348 106
Width: 826
Flags: W
LayerCount: 2
Fore
SplineSet
403.9296875 570.330078125 m 0
 393.11739052 629.928316385 590.133030521 632.164398962 711 526 c 0
 821.6796875 428.790039062 835.419921875 228.109375 786.959960938 134.01953125 c 0
 738.490234375 39.939453125 624.209960938 15.1298828125 554.780273438 4.41015625 c 0
 507.240234375 -2.919921875 449.080078125 -15.4404296875 452.08984375 33.169921875 c 0
 453.98046875 63.509765625 471.01953125 68.6396484375 474.469726562 67.2294921875 c 1
 481.76953125 121.450195312 426.690429688 444.939453125 403.9296875 570.330078125 c 0
738.650390625 348.080078125 m 0
 710.943309082 523.508794927 522.906452246 568.315935447 468.41015625 549 c 1
 520.110351562 381.58984375 533.900390625 112.009765625 543.379882812 73.5703125 c 1
 621.889648438 93.669921875 779.129882812 91.7294921875 738.650390625 348.080078125 c 0
4.8505859375 579.190429688 m 0
 -9.3193359375 645.48046875 224.940429688 620.219726562 316.690429688 517.940429688 c 0
 464.580078125 353.077148438 447.373046875 21.306640625 160.630859375 -2.5 c 0
 103.850585938 -7.2099609375 76.73046875 17.2197265625 70.2900390625 39.240234375 c 0
 65.2705078125 56.419921875 74.6708984375 70.9404296875 106.2109375 67.330078125 c 1
 114.5 118.650390625 18.490234375 515.310546875 4.8505859375 579.190429688 c 0
81.23046875 545.330078125 m 1
 102.680664062 490.310546875 178.170898438 118.360351562 168.8203125 73.310546875 c 0
 166.55078125 45.75 370.720703125 87.7802734375 336 339 c 0
 311.830078125 513.879882812 111.850585938 560.669921875 81.23046875 545.330078125 c 1
EndSplineSet
Validated: 33
Ligature2: "'liga' Standard Ligatures in Latin lookup 0-1" d d
LCarets2: 1 418
EndChar

StartChar: s_s
Encoding: 245 57349 107
Width: 922
Flags: W
LayerCount: 2
Fore
SplineSet
449.3203125 484.129882812 m 0
 474.706054688 615.84375 637.08984375 661.466796875 780.669921875 608.259765625 c 0
 835.040039062 588.099609375 823.780273438 545.099609375 798.25 535 c 0
 772.73046875 524.889648438 701.690429688 584.26953125 622.25 568.73046875 c 0
 570.900390625 558.690429688 516.75 504.639648438 512.150390625 454.0703125 c 0
 501.76953125 339.759765625 684.469726562 355.8203125 795.370117188 315.16015625 c 0
 869.110351562 288.129882812 897.030273438 228.950195312 874.290039062 139.129882812 c 0
 851.200195312 47.9599609375 762.280273438 20.23046875 697.009765625 10.2900390625 c 0
 613.58984375 -2.400390625 476.709960938 81.7197265625 514.76953125 117.049804688 c 1
 557.099609375 163.549804688 588.080078125 106.459960938 622.360351562 95.4296875 c 0
 652.150390625 85.849609375 743.549804688 79.1201171875 772.8203125 107.540039062 c 0
 801.440429688 135.330078125 844.040039062 205.16015625 788.099609375 245.950195312 c 0
 715.509765625 298.879882812 404.919921875 253.73046875 449.3203125 484.129882812 c 0
143.040039062 92.7197265625 m 0
 179.309570312 71.6904296875 255.669921875 69.2099609375 294.580078125 73.8896484375 c 0
 387.26953125 85.01953125 423.580078125 165.040039062 317.790039062 236.309570312 c 0
 245.200195312 285.23046875 -7.01953125 376.540039062 0.150390625 498.150390625 c 0
 5.8203125 594.5 175.120117188 626.009765625 298.009765625 602.620117188 c 0
 359.509765625 590.91015625 404.259765625 574.030273438 374.01953125 535.8203125 c 0
 348.299804688 503.309570312 247.540039062 546.700195312 195.040039062 545.169921875 c 0
 154.900390625 544.009765625 64.5302734375 533.009765625 69.0302734375 487.459960938 c 0
 75.0498046875 426.559570312 259.919921875 363.309570312 336.389648438 310.6796875 c 0
 395.509765625 270 484.120117188 178.41015625 455.4296875 94.9599609375 c 0
 418.91015625 -11.2998046875 264.709960938 2.8603515625 200.599609375 6.9404296875 c 0
 115.860351562 12.349609375 35.4296875 93.2900390625 71.3203125 127.389648438 c 0
 115.309570312 169.169921875 127.490234375 100.549804688 143.040039062 92.7197265625 c 0
EndSplineSet
Validated: 33
Ligature2: "'liga' Standard Ligatures in Latin lookup 0-1" s s
LCarets2: 1 446
EndChar

StartChar: m_m
Encoding: 244 57350 108
Width: 922
Flags: W
VStem: 4.41992 65.5801<101.228 424.697> 344.71 66.6602<96.1387 466.546>
LayerCount: 2
Fore
SplineSet
462.559570312 344.950195312 m 1
 452.1796875 442.540039062 431.049804688 628.490234375 479.940429688 629.950195312 c 0
 528.830078125 631.41015625 548.08984375 484.400390625 575.41015625 430.240234375 c 0
 610.419921875 360.83984375 673.870117188 246.580078125 698 247.26953125 c 1
 694.21484375 407.916992188 790.159179688 668.98828125 829.610351562 636.129882812 c 0
 859.540039062 611.209960938 868.080078125 427.889648438 895.849609375 288.3203125 c 0
 939.08984375 71.08984375 1022.87011719 -31.419921875 932.0703125 -23.6103515625 c 0
 861.809570312 -17.580078125 852 158 836.48046875 253.349609375 c 0
 822.828527199 337.225035325 819.58984375 426.110351562 810.83984375 461.969726562 c 1
 770.049804688 422.879882812 787.879882812 189.4296875 738.540039062 150.080078125 c 0
 680.120117188 103.490234375 563.559570312 301.459960938 516.049804688 412.48046875 c 1
 509.080078125 386.360351562 551.790039062 131.099609375 560.5 116.530273438 c 0
 578.290039062 86.75 599.759765625 7.2900390625 536.610351562 13.8603515625 c 0
 467.459960938 21.0498046875 480.16015625 252.8203125 462.559570312 344.950195312 c 1
4.419921875 333.150390625 m 0
 9.150390625 424.809570312 -14.0595703125 611.490234375 16.08984375 618.759765625 c 0
 46.23046875 626.040039062 80.5595703125 600.0703125 148.139648438 460.860351562 c 0
 178.3203125 398.709960938 209.799804688 305.740234375 209.799804688 305.740234375 c 1
 257.759765625 497.98046875 l 1
 257.759765625 497.98046875 285.400390625 639.309570312 335.259765625 643.91015625 c 0
 395.91015625 649.5 395.120117188 394.200195312 411.370117188 264.509765625 c 0
 436.809570312 61.419921875 453.389648438 2.9501953125 404.98046875 9.48046875 c 0
 355.0703125 16.2197265625 353.4296875 159.209960938 344.709960938 233.33984375 c 0
 334.8203125 317.440429688 329.0703125 504.48046875 329.0703125 504.48046875 c 1
 329.0703125 504.48046875 276.120117188 177.75 216.440429688 190.740234375 c 0
 175.559570312 199.639648438 109.299804688 371.610351562 69.3896484375 478.830078125 c 0
 60.669921875 502.240234375 72.5703125 339.26953125 70 252.459960938 c 0
 68.3896484375 198.169921875 97.4501953125 32.830078125 56.8896484375 27.6396484375 c 0
 -12.6904296875 18.740234375 -1.33984375 221.290039062 4.419921875 333.150390625 c 0
EndSplineSet
Validated: 33
Ligature2: "'liga' Standard Ligatures in Latin lookup 0-1" m m
LCarets2: 1 444
EndChar

StartChar: p_p
Encoding: 243 57351 109
Width: 724
Flags: W
LayerCount: 2
Fore
SplineSet
373.23046875 396.5703125 m 0
 364.700195312 519.349609375 339.919921875 600.370117188 371.83984375 618.009765625 c 0
 426.8203125 648.400390625 546.98046875 678.959960938 653.83984375 617.099609375 c 0
 724.870117188 575.969726562 725.299804688 465.759765625 684.889648438 378.400390625 c 0
 644.469726562 291.049804688 527.559570312 234.8203125 446.469726562 236.309570312 c 1
 445.900390625 150.610351562 530.129882812 7.3603515625 465.370117188 7 c 0
 400.610351562 6.6396484375 388.8203125 172.110351562 373.23046875 396.5703125 c 0
434.610351562 572.440429688 m 0
 415.040039062 565.190429688 432.8203125 349.030273438 445.099609375 319.490234375 c 1
 567.23046875 294.440429688 649.400390625 409.690429688 653.719726562 485.299804688 c 0
 656.76953125 538.559570312 596.25 634.009765625 434.610351562 572.440429688 c 0
25.3203125 615.6796875 m 0
 68.9697265625 645.990234375 210.879882812 630.5 284.16015625 576.469726562 c 0
 348.860351562 528.75 349.700195312 416.709960938 320.700195312 376.4296875 c 0
 286.73046875 329.240234375 154.23046875 270.8203125 98.400390625 265.919921875 c 1
 97.900390625 180.349609375 144.58984375 9.599609375 86.2197265625 -3.5400390625 c 0
 27.8603515625 -16.6796875 47.650390625 253.860351562 22.26953125 394.559570312 c 0
 3.849609375 496.709960938 -18.3203125 585.370117188 25.3203125 615.6796875 c 0
73.08984375 557.849609375 m 1
 51.0498046875 534.540039062 85.26953125 416.5 91.3603515625 339.419921875 c 0
 94.5302734375 328.16015625 304.700195312 362.400390625 281.01953125 472.0703125 c 0
 272.379882812 530 185.059570312 578.4296875 73.08984375 557.849609375 c 1
EndSplineSet
Validated: 33
Ligature2: "'liga' Standard Ligatures in Latin lookup 0-1" p p
LCarets2: 1 349
EndChar

StartChar: f_f
Encoding: 242 57352 110
Width: 732
Flags: W
LayerCount: 2
Fore
SplineSet
339.030273438 593.360351562 m 1
 374.419921875 632.791015625 722.916992188 632.040039062 715.879882812 589.059570312 c 0
 704.8203125 521.559570312 477.73046875 576.580078125 412.169921875 544.959960938 c 1
 398.1796875 532.0703125 447.3203125 325.759765625 451.080078125 323.110351562 c 0
 561.650390625 285.110351562 680.91015625 372.719726562 703.490234375 306.049804688 c 0
 730.870117188 225.200195312 458.370117188 265.959960938 465.6796875 237.190429688 c 0
 474.610351562 194.459960938 470.059570312 198.030273438 474.379882812 162.190429688 c 1
 470.919921875 131.889648438 539.950195312 18.76953125 468.23046875 19 c 0
 411.4296875 19.1796875 414.059570312 229.540039062 387.790039062 313.450195312 c 0
 350.870117188 427.780273438 319.400390625 579.120117188 339.030273438 593.360351562 c 1
167.91015625 622.790039062 m 0
 237.370117188 617.76953125 314.919921875 627.559570312 310.849609375 585.129882812 c 0
 304.120117188 515.150390625 139.3203125 573.040039062 71.830078125 540.540039062 c 1
 57.4296875 527.299804688 123.370117188 294.009765625 128.08984375 294.309570312 c 0
 228.889648438 300.379882812 302.120117188 322.940429688 293.98046875 270.879882812 c 0
 284.58984375 210.91015625 138.48046875 255.219726562 145.419921875 202.490234375 c 0
 155.959960938 122.549804688 170.830078125 -2.3896484375 121.450195312 3.1796875 c 0
 63.349609375 9.740234375 90.080078125 162.740234375 63.0302734375 248.969726562 c 0
 25.0302734375 366.4296875 -14.759765625 582.150390625 5.4501953125 596.780273438 c 1
 20.0498046875 613.01953125 88.7099609375 628.509765625 167.91015625 622.790039062 c 0
EndSplineSet
Validated: 33
Ligature2: "'liga' Standard Ligatures in Latin lookup 0-1" f f
LCarets2: 1 326
EndChar

StartChar: l_l
Encoding: 64 -1 111
Width: 906
HStem: 22.7998 71.7002<144.305 391.791> 37.2002 74.9902<553.031 808.468>
LayerCount: 2
Fore
SplineSet
445.610351562 650.889648438 m 0x40
 494.599609375 655.349609375 478.26953125 486.809570312 505.26953125 337.900390625 c 0
 527.580078125 214.870117188 549.299804688 108.950195312 570.16015625 112.190429688 c 0
 637.469726562 119.25 886.969726562 120.030273438 879.860351562 75.23046875 c 0
 872.23046875 27.1904296875 787.629882812 17.48046875 698.009765625 37.2001953125 c 0
 615.990234375 55.25 528.26953125 7.2998046875 509.669921875 34.900390625 c 0
 485.98046875 70.080078125 452.580078125 234.030273438 444.290039062 331.059570312 c 0
 435.990234375 428.08984375 393.5703125 629.809570312 434.900390625 648.080078125 c 0
 438.780273438 649.669921875 442.33984375 650.599609375 445.610351562 650.889648438 c 0x40
19.1904296875 600.0703125 m 0
 86.0400390625 630.219726562 62.5 511.33984375 97.2900390625 344.990234375 c 0
 124.240234375 216.129882812 139.5703125 92.900390625 157.469726562 94.5 c 1
 205.740234375 80.1201171875 455.01953125 134.299804688 459.5703125 56.25 c 0
 464.0703125 -20.8203125 259.150390625 30.25 201.139648438 22.7998046875 c 0x80
 143.129882812 15.3603515625 142.849609375 -12.58984375 111.5 11.58984375 c 0
 66.7099609375 46.150390625 60.16015625 205.389648438 44.76953125 303.469726562 c 0
 29.3896484375 401.549804688 -28.8603515625 578.41015625 19.1904296875 600.0703125 c 0
EndSplineSet
Validated: 33
LCarets2: 1 419
Ligature2: "'liga' Standard Ligatures in Latin lookup 0-1" l l
EndChar

StartChar: c_c
Encoding: 240 57353 112
Width: 806
Flags: W
LayerCount: 2
Fore
SplineSet
615.870117188 615.279296875 m 0
 673.719726562 631.818359375 780.169921875 603.1015625 754.25 557.220703125 c 0
 724.540039062 504.64453125 675.349609375 560.587890625 603.73046875 540.578125 c 0
 560.3203125 528.453125 538.280273438 522.365234375 497.33984375 478.013671875 c 0
 462.610351562 440.396484375 428.299804688 361.383789062 435.049804688 301.549804688 c 0
 443.259765625 228.780273438 510.580078125 164.44921875 571.5 124.358398438 c 0
 632.419921875 84.2666015625 779.719726562 105.067382812 794.389648438 61.0029296875 c 0
 822.580078125 -23.7001953125 614.799804688 31.16015625 545.139648438 64.0517578125 c 0
 475.469726562 96.935546875 392.940429688 180.13671875 376.41015625 258.34765625 c 0
 341.990234375 421.217773438 409.610351562 482.602539062 456.629882812 537.622070312 c 0
 504.540039062 593.657226562 568.509765625 601.7265625 615.870117188 615.279296875 c 0
375.599609375 561.240234375 m 0
 393 471 227 519 142.490234375 443.48046875 c 0
 74.2152141507 382.468614258 56.23046875 315.740234375 66.33984375 259.870117188 c 0
 76.4404296875 203.990234375 137.8203125 143.110351562 203.120117188 108.240234375 c 0
 314.219726562 48.91015625 440.73046875 91.4599609375 456.110351562 47.2998046875 c 0
 472.209960938 1.08984375 265.240234375 -21.2001953125 174.280273438 36.6298828125 c 0
 93.740234375 87.830078125 47.8603515625 128.16015625 13.48046875 224.41015625 c 0
 -33.41015625 355.6796875 55.3410120653 471.342330154 130.360351562 521.299804688 c 0
 211 575 367.721840305 602.095163586 375.599609375 561.240234375 c 0
EndSplineSet
Validated: 33
Ligature2: "'liga' Standard Ligatures in Latin lookup 0-1" c c
LCarets2: 1 0
EndChar

StartChar: at
Encoding: 31 64 113
Width: 589
Flags: W
LayerCount: 2
Fore
SplineSet
233.3203125 403.215820312 m 0
 208.030273438 406.576171875 192.379882812 370.444335938 186.080078125 357.3828125 c 0
 175.379882812 335.639648438 209.870117188 273.290039062 227.599609375 263.3203125 c 0
 228.145222865 263.014708629 294.821899367 237.716202774 290.469726562 329.41796875 c 0
 288.76953125 365.170898438 255.66015625 400.247070312 233.3203125 403.215820312 c 0
252.950195312 628.083984375 m 0
 329.509765625 618.286132812 389.91015625 576.521484375 440.75 522.653320312 c 0
 470.009765625 491.650390625 521.419921875 395.740234375 483.719726562 314.583984375 c 0
 474.4296875 294.599609375 446.349609375 234.200195312 401.379882812 231.91015625 c 0
 371.990234375 230.400390625 348.190429688 261.059570312 348.190429688 261.059570312 c 1
 348.190429688 261.059570312 343.440429688 245.83984375 338.540039062 233.709960938 c 0
 333.639648438 221.58984375 300.080078125 191.650390625 265.690429688 189.580078125 c 0
 235.599609375 187.76953125 197.469726562 205.599609375 181.700195312 224.110351562 c 0
 154.700195312 255.809570312 123.650390625 304.561523438 126.299804688 351.977539062 c 0
 128.940429688 399.399414062 155.549804688 436.677734375 183.459960938 456.692382812 c 0
 211.049804688 476.47265625 274.959960938 466.256835938 299.26953125 439.150390625 c 0
 342.790039062 390.602539062 352.610351562 321.250976562 352.610351562 321.250976562 c 1
 362.959960938 313.146484375 371.91015625 299.271484375 389.650390625 306.966796875 c 0
 394.450195312 308.97265625 419.309570312 333.551757812 427.629882812 363.543945312 c 0
 452.779385369 454.318272709 261.441219373 654.628418254 112.5703125 512.077148438 c 0
 63.91015625 465.4921875 54.759765625 423.243164062 59.580078125 344.752929688 c 0
 62.6103515625 289.459960938 75.5498046875 225.040039062 124.75 179.740234375 c 0
 177.129882812 131.509765625 228.01953125 112.099609375 285.509765625 105.379882812 c 0
 345.370117188 98.2998046875 382.120117188 121.110351562 435.719726562 156.8203125 c 0
 482.049804688 187.700195312 491 236.549804688 515.389648438 248.01953125 c 0
 532.688032517 256.162820064 591.521127689 247.070501913 528.969726562 155.009765625 c 0
 507.75 124.01953125 502.75 127.780273438 478.709960938 107.389648438 c 0
 454.509765625 86.83984375 438.98046875 70.9404296875 405.709960938 58.7900390625 c 0
 318.840223629 27.0745171401 172.055961278 29.4841120585 85.7998046875 130.759765625 c 0
 29.73046875 196.559570312 1.51953125 277.129882812 0.25 352.237304688 c 0
 -1.41015625 432.3203125 3.4697265625 510.283203125 67.669921875 564.76953125 c 0
 125.700195312 614.01171875 182.51953125 637.099609375 252.950195312 628.083984375 c 0
EndSplineSet
Validated: 33
EndChar

StartChar: n_n
Encoding: 239 -1 114
Width: 942
Flags: W
LayerCount: 2
Fore
SplineSet
466.91015625 301.139648438 m 1
 454.51953125 396.25 411.150390625 645.240234375 474.990234375 615.209960938 c 0
 538.809570312 585.1796875 794.940429688 156.309570312 849.879882812 120.969726562 c 1
 830.490234375 209.719726562 796.009765625 305.919921875 785.240234375 390.419921875 c 0
 774.469726562 474.919921875 746.33984375 630.280273438 785.240234375 627.969726562 c 0
 860.280273438 623.530273438 823.650390625 457.540039062 881.309570312 267.76953125 c 0
 922.150390625 133.360351562 965.740234375 -25.0498046875 915.280273438 -20.919921875 c 0
 861.349609375 -16.51953125 729.799804688 166.259765625 660.309570312 247.309570312 c 0
 590.830078125 328.349609375 530.759765625 448.299804688 507.299804688 465.349609375 c 1
 510.059570312 320.349609375 605.790039062 22.1298828125 529.9296875 31.6904296875 c 0
 469.150390625 39.33984375 487.919921875 211.3203125 466.91015625 301.139648438 c 1
318.360351562 638.900390625 m 0
 423.41015625 644.8203125 389.76953125 392.1796875 397.919921875 279.16015625 c 0
 405.620117188 172.469726562 441.049804688 26.01953125 413.940429688 8.4404296875 c 0
 352.98046875 -31.1103515625 249.674804688 217.446289062 195.030273438 302.0703125 c 0
 146 378 92.33984375 504.790039062 71.330078125 522.16015625 c 1
 56.990234375 273.849609375 165.030273438 -1.650390625 94.7001953125 11.1796875 c 0
 38.33984375 21.490234375 10.8701171875 213.26953125 8.83984375 286.190429688 c 0
 5.91015625 391.530273438 -18.9404296875 641.6796875 30.419921875 649.169921875 c 0
 100.990234375 659.870117188 329.4296875 228.209960938 344.370117188 169.509765625 c 1
 308.1796875 311.6796875 337.650390625 385.440429688 328.759765625 481.509765625 c 0
 321.900390625 555.559570312 278.3203125 636.639648438 318.360351562 638.900390625 c 0
EndSplineSet
Validated: 33
LCarets2: 1 435
Ligature2: "'liga' Standard Ligatures in Latin lookup 0-1" n n
EndChar

StartChar: g_g
Encoding: 238 -1 115
Width: 1120
Flags: W
HStem: 232.296 83.2627<805.878 942.775>
LayerCount: 2
Fore
SplineSet
934 571.415039062 m 1
 934 571.552734375 l 1
 887.540039062 546.6015625 868.240234375 594.436523438 792.139648438 576.791992188 c 0
 745.120117188 565.901367188 657.440429688 533.505859375 623.110351562 461.822265625 c 0
 598.16015625 409.436523438 601.190429688 288.540039062 627.379882812 225.954101562 c 0
 653.580078125 163.369140625 701.419921875 108.502929688 780.559570312 86.033203125 c 0
 859.690429688 63.5634765625 912.629882812 70.4560546875 940.209960938 91.2724609375 c 0
 1001.83007812 138.00390625 965.5703125 202.106445312 917.58984375 232.295898438 c 1
 848.389648438 240.98046875 840.940429688 208.033203125 795.440429688 266.208007812 c 0
 746.5 328.930664062 842.3203125 308.529296875 903.950195312 315.55859375 c 0
 965.5703125 322.58984375 1119.01953125 357.466796875 1123.83984375 308.666992188 c 0
 1128.95019531 256.696289062 1007.34960938 244.565429688 1007.34960938 244.565429688 c 1
 1007.34960938 244.565429688 1085.9296875 118.98046875 1021.95996094 61.6328125 c 0
 946.8203125 -5.7802734375 812.540039062 0.2900390625 735.200195312 26.0703125 c 0
 621.681640625 63.9033203125 474.33203125 261.129882812 553.209960938 488.703125 c 0
 596.639648438 614.150390625 775.1796875 649.165039062 843.150390625 650.95703125 c 0
 911.120117188 652.749023438 984.3203125 598.434570312 934 571.415039062 c 1
137.330078125 563.879882812 m 0
 219.290039062 612.509765625 445.780273438 593.709960938 419.290039062 540.740234375 c 0
 390.469726562 482.009765625 249.849609375 557.030273438 176.3203125 509.919921875 c 0
 139.91015625 486.599609375 65.3701171875 432.540039062 67.4404296875 316.540039062 c 0
 68.599609375 251.280273438 123.690429688 165.349609375 176.0703125 125.940429688 c 0
 228.450195312 86.5302734375 308.8203125 34.91015625 388.290039062 67.080078125 c 0
 430.700195312 84.240234375 465.0703125 137.16015625 448.23046875 183.389648438 c 0
 434.169921875 222 417.73046875 239.389648438 417.73046875 239.389648438 c 1
 417.73046875 239.389648438 188.700195312 207.91015625 198.080078125 274.709960938 c 0
 203.799804688 315.349609375 295.809570312 302.040039062 345.0703125 306.280273438 c 0
 394.33984375 310.51953125 464.120117188 311.349609375 493.700195312 300.129882812 c 0
 518.51953125 290.740234375 501.08984375 251.200195312 489.3203125 239.1796875 c 1
 530.990234375 187.419921875 529.4296875 99.8896484375 489.389648438 58.83984375 c 0
 434.759765625 2.83984375 336.040039062 -35.490234375 209.299804688 20.2001953125 c 0
 109.940429688 63.8603515625 16.6796875 211.1796875 2.5498046875 301.509765625 c 0
 -16.1201171875 420.809570312 71.669921875 524.919921875 137.330078125 563.879882812 c 0
EndSplineSet
Validated: 33
LCarets2: 1 0
Ligature2: "'liga' Standard Ligatures in Latin lookup 0-1" g g
EndChar

StartChar: backslash
Encoding: 31 92 116
Width: 322
Flags: W
LayerCount: 2
Fore
SplineSet
234.799804688 -9.259765625 m 0
 187.73046875 72.1298828125 41.900390625 446.099609375 8.7998046875 542.48046875 c 0
 -24.2998046875 638.860351562 52.6904296875 684.459960938 80.1796875 579.83984375 c 0
 130.620117188 387.8203125 229.870117188 156.129882812 291.200195312 54.1396484375 c 0
 325.5 -2.98046875 281.860351562 -90.650390625 234.799804688 -9.259765625 c 0
EndSplineSet
Validated: 33
EndChar

StartChar: b_b
Encoding: 239 57360 117
Width: 812
Flags: W
HStem: 2.92126 59.0787<152 250.189> 24.266 61.5497<530.038 721.231> 275.898 54.1019<513.159 607.231> 303 49<166 191.66> 550.364 67.8933<471.398 624.03> 561.559 67.5173<85.7816 214.641>
VStem: -0.0322442 65.0909<392.498 556.723> 258.696 59.3384<407.135 518.122> 350.996 68.0556<139.627 252.471> 406.432 62.862<376.856 544.808> 697.008 70.0263<400.323 499.721> 739.152 59.4521<104.364 209.803>
LayerCount: 2
Fore
SplineSet
513 264 m 0x2310
 512.489795918 262.775510204 512.260724698 260.062057476 512.260724698 256.176261592 c 0
 512.260724698 221.981257809 530 97 530 97 c 1
 530 97 582.37567447 85.815611181 634.553272145 85.815611181 c 0
 682.276684653 85.815611181 729.834394904 95.1719745223 737 131 c 0
 738.464423446 138.426718904 739.151999657 145.470484945 739.151999657 152.163344133 c 0
 739.151999657 209.454730006 688.769916265 241.033448566 644 267 c 0
 633.074693325 273.303061543 609.083096532 275.898121837 584.564344393 275.898121837 c 0
 550.733470791 275.898121837 515.898979486 270.957550765 513 264 c 0x2310
503 330 m 0
 600.498731089 331.989770022 697.007665993 377.530572199 697.007665993 462.683472976 c 0
 697.007665993 463.121268436 697.005114989 463.560110956 697 464 c 0
 697 512.113035938 590.708009449 550.363928424 522.501094853 550.363928424 c 0
 498.561476554 550.363928424 479.313582307 545.651777331 471 535 c 0
 469.818938785 533.346514299 469.293483199 529.210096643 469.293483199 523.201957992 c 0x2b60
 469.293483199 478.471536274 498.41822647 329.996107515 502.960396492 329.996107515 c 0
 502.973812586 329.996107515 502.987014217 329.997402843 503 330 c 0
502 30 m 1
 449 42 458 200 438 298 c 0
 423.525254714 369.649989167 406.431531289 479.537059159 406.431531289 543.124047503 c 0
 406.431531289 567.39627476 408.922219815 584.922219815 415 591 c 0
 445 620 475 616 514 618 c 0
 517.618625974 618.170288281 521.37861768 618.257207029 525.261766107 618.257207029 c 0
 612.592138688 618.257207029 762.212860351 574.295342582 767 446 c 0
 767.022727273 445.363636364 767.033961777 444.72572314 767.033961777 444.086377724 c 0x4b60
 767.033961777 388.463326446 682 322 682 322 c 1
 745.681611394 301.076041971 798.604137239 223.873790305 798.604137239 151.379649718 c 0
 798.604137239 144.186895924 798.083152333 137.040490161 797 130 c 0
 785.236547464 47.6558322498 731.713807392 24.2659527858 651.25028346 24.2659527858 c 0x4b10
 642.792140226 24.2659527858 634.036308393 24.5244048214 625 25 c 2
 502 30 l 1
233 304 m 1
 186 303 l 1
 156 294 l 2
 141 289 126 286 112 282 c 0
 110.993917205 281.329278137 110.537672854 279.333945477 110.537672854 276.198396352 c 0
 110.537672854 251.28462164 139.341443726 154.38631996 150 78 c 1
 152 62 l 1
 169 62 l 1
 227 70 295 94 332 141 c 0
 345.086448571 157.678807003 350.996115195 176.003664911 350.996115195 194.166822528 c 0x1380
 350.996115195 246.788418576 301.393073166 298.052776246 233 304 c 1
258 474 m 0
 250.626021045 520.925320623 201.908636817 561.559253488 148.901645984 561.559253488 c 0x17
 122.83641506 561.559253488 95.7339559303 551.73395593 72 528 c 1
 67.0774833767 525.314990933 65.0587019902 515.320579373 65.0587019902 501.354945667 c 0
 65.0587019902 452.904550125 89.3562613341 356.657495466 101 352 c 1
 164.85882076 352.953116728 258.695880911 389.335061828 258.695880911 462.877517811 c 0
 258.695880911 466.495029586 258.468832722 470.202454948 258 474 c 0
7 582 m 0
 40.2256998615 614.153903092 84.9388828788 629.07658145 129.135107897 629.07658145 c 0
 167.410161514 629.07658145 205.297496631 617.884572681 235 597 c 0
 279.804733695 564.996618789 318.034250937 513.267588222 318.034250937 456.560934803 c 0
 318.034250937 433.532281909 311.729501295 409.682727572 297 386 c 1
 272 358 l 1
 288 356 l 1
 353.922652597 335.510526895 419.051697429 261.849333483 419.051697429 188.040131631 c 0
 419.051697429 178.996463917 418.073913522 169.950574149 416 161 c 0
 395 70 284 21 202 12 c 2
 152 7 l 2
 139.362548009 5.51324094226 124.514643523 2.92125563664 113.618305796 2.92125563664 c 0x8780
 109.856804151 2.92125563664 106.566204711 3.23013858661 104 4 c 0
 94 8 93 19 90 26 c 0
 66 93 58 216 44 285 c 0
 27.5239096251 363.457573214 -0.0322441802132 487.466518308 -0.0322441802132 548.362474308 c 0
 -0.0322441802132 565.082933786 2.04524183922 577.045241839 7 582 c 0
EndSplineSet
Validated: 1
Ligature2: "'liga' Standard Ligatures in Latin lookup 0-1" b b
LCarets2: 1 0
EndChar

StartChar: g_g
Encoding: 238 57361 118
Width: 1120
Flags: W
HStem: 232.296 83.2627<805.878 942.775>
LayerCount: 2
Fore
SplineSet
934 571.415039062 m 1
 934 571.552734375 l 1
 887.540039062 546.6015625 868.240234375 594.436523438 792.139648438 576.791992188 c 0
 745.120117188 565.901367188 657.440429688 533.505859375 623.110351562 461.822265625 c 0
 598.16015625 409.436523438 601.190429688 288.540039062 627.379882812 225.954101562 c 0
 653.580078125 163.369140625 701.419921875 108.502929688 780.559570312 86.033203125 c 0
 859.690429688 63.5634765625 912.629882812 70.4560546875 940.209960938 91.2724609375 c 0
 1001.83007812 138.00390625 965.5703125 202.106445312 917.58984375 232.295898438 c 1
 848.389648438 240.98046875 840.940429688 208.033203125 795.440429688 266.208007812 c 0
 746.5 328.930664062 842.3203125 308.529296875 903.950195312 315.55859375 c 0
 965.5703125 322.58984375 1119.01953125 357.466796875 1123.83984375 308.666992188 c 0
 1128.95019531 256.696289062 1007.34960938 244.565429688 1007.34960938 244.565429688 c 1
 1007.34960938 244.565429688 1085.9296875 118.98046875 1021.95996094 61.6328125 c 0
 946.8203125 -5.7802734375 812.540039062 0.2900390625 735.200195312 26.0703125 c 0
 621.681640625 63.9033203125 474.33203125 261.129882812 553.209960938 488.703125 c 0
 596.639648438 614.150390625 775.1796875 649.165039062 843.150390625 650.95703125 c 0
 911.120117188 652.749023438 984.3203125 598.434570312 934 571.415039062 c 1
137.330078125 563.879882812 m 0
 219.290039062 612.509765625 445.780273438 593.709960938 419.290039062 540.740234375 c 0
 390.469726562 482.009765625 249.849609375 557.030273438 176.3203125 509.919921875 c 0
 139.91015625 486.599609375 65.3701171875 432.540039062 67.4404296875 316.540039062 c 0
 68.599609375 251.280273438 123.690429688 165.349609375 176.0703125 125.940429688 c 0
 228.450195312 86.5302734375 308.8203125 34.91015625 388.290039062 67.080078125 c 0
 430.700195312 84.240234375 465.0703125 137.16015625 448.23046875 183.389648438 c 0
 434.169921875 222 417.73046875 239.389648438 417.73046875 239.389648438 c 1
 417.73046875 239.389648438 188.700195312 207.91015625 198.080078125 274.709960938 c 0
 203.799804688 315.349609375 295.809570312 302.040039062 345.0703125 306.280273438 c 0
 394.33984375 310.51953125 464.120117188 311.349609375 493.700195312 300.129882812 c 0
 518.51953125 290.740234375 501.08984375 251.200195312 489.3203125 239.1796875 c 1
 530.990234375 187.419921875 529.4296875 99.8896484375 489.389648438 58.83984375 c 0
 434.759765625 2.83984375 336.040039062 -35.490234375 209.299804688 20.2001953125 c 0
 109.940429688 63.8603515625 16.6796875 211.1796875 2.5498046875 301.509765625 c 0
 -16.1201171875 420.809570312 71.669921875 524.919921875 137.330078125 563.879882812 c 0
EndSplineSet
Validated: 33
Ligature2: "'liga' Standard Ligatures in Latin lookup 0-1" g g
LCarets2: 1 0
EndChar

StartChar: degree
Encoding: 237 176 119
Width: 274
Flags: W
VStem: 0.230469 208.739
LayerCount: 2
Fore
SplineSet
35.650390625 633.580078125 m 0
 77.169921875 656.290039062 112.419921875 665.059570312 142.610351562 657.150390625 c 0
 180.150390625 647.299804688 210.139648438 589.41015625 208.969726562 550.23046875 c 0
 208.389648438 531 187.370117188 491.889648438 157.16015625 467.040039062 c 0
 94.533203125 415.530273438 -5.6875 452.486328125 0.23046875 561.150390625 c 0
 1.849609375 591.139648438 12.2802734375 620.809570312 35.650390625 633.580078125 c 0
146.580078125 553.790039062 m 0
 156.60546875 612.629882812 61.78125 618.840820312 56.23046875 553.549804688 c 0
 54.75 536.099609375 55.4404296875 512.530273438 85.0302734375 503.849609375 c 0
 126.759765625 491.639648438 141.959960938 526.66015625 146.580078125 553.790039062 c 0
EndSplineSet
EndChar
